<svg width="14" height="15" viewBox="0 0 14 15" fill="none" xmlns="http://www.w3.org/2000/svg">
<path d="M1.1029 6.07619C1.07675 6.19958 1.00992 6.31061 0.913134 6.39149C0.816346 6.47237 0.695204 6.5184 0.569131 6.52222H0.444829C0.3722 6.50662 0.303375 6.47681 0.24232 6.4345C0.181264 6.39218 0.129185 6.33821 0.0890846 6.27568C0.0489837 6.21315 0.0216534 6.1433 0.00866843 6.07016C-0.00431655 5.99702 -0.00269945 5.92203 0.0134266 5.84952C0.286218 4.6338 0.883327 3.51471 1.74128 2.61121C2.59924 1.70771 3.68597 1.05357 4.88598 0.718323C6.08598 0.383072 7.35439 0.379242 8.5564 0.707239C9.7584 1.03524 10.8491 1.6828 11.7125 2.5811V0.570328C11.7115 0.49639 11.7251 0.422986 11.7525 0.354307C11.7799 0.285629 11.8206 0.223021 11.8722 0.17006C11.9238 0.117099 11.9853 0.0748217 12.0533 0.0456425C12.1212 0.0164634 12.1942 0.000954 12.2682 0C12.4194 0 12.5645 0.060088 12.6715 0.167045C12.7784 0.274003 12.8385 0.419068 12.8385 0.570328V3.97036C12.8366 4.12035 12.7756 4.26355 12.6689 4.36893C12.5621 4.47431 12.4182 4.53339 12.2682 4.53338H8.80964C8.72982 4.54246 8.64898 4.53458 8.57242 4.51024C8.49585 4.48591 8.4253 4.44567 8.36536 4.39217C8.30543 4.33867 8.25748 4.27312 8.22465 4.19979C8.19181 4.12647 8.17484 4.04704 8.17484 3.96671C8.17484 3.88637 8.19181 3.80694 8.22465 3.73362C8.25748 3.6603 8.30543 3.59474 8.36536 3.54124C8.4253 3.48774 8.49585 3.4475 8.57242 3.42317C8.64898 3.39884 8.72982 3.39095 8.80964 3.40003H10.9228C10.2065 2.63756 9.29622 2.08447 8.28949 1.8001C7.28276 1.51573 6.2176 1.51081 5.20828 1.78587C4.19897 2.06093 3.28358 2.6056 2.56033 3.36143C1.83708 4.11726 1.33325 5.05574 1.1029 6.07619V6.07619ZM13.0432 8.06503C12.9707 8.04905 12.8956 8.04779 12.8226 8.06131C12.7495 8.07484 12.6799 8.10289 12.6178 8.14379C12.5558 8.1847 12.5026 8.23763 12.4614 8.29945C12.4202 8.36128 12.3918 8.43074 12.3778 8.50374C12.1644 9.54595 11.6665 10.5087 10.9395 11.2853C10.2124 12.062 9.28453 12.6221 8.25865 12.9038C7.23276 13.1854 6.14892 13.1776 5.12724 12.881C4.10555 12.5845 3.18591 12.0109 2.47022 11.2238H4.6638C4.81506 11.2238 4.96012 11.1637 5.06708 11.0567C5.17404 10.9498 5.23412 10.8047 5.23412 10.6534C5.23413 10.5789 5.21933 10.5051 5.19058 10.4363C5.16183 10.3675 5.1197 10.3051 5.06664 10.2527C5.01359 10.2003 4.95065 10.159 4.8815 10.1312C4.81234 10.1033 4.73834 10.0895 4.6638 10.0904H1.49043C1.41588 10.0895 1.34188 10.1033 1.27273 10.1312C1.20357 10.159 1.14064 10.2003 1.08758 10.2527C1.03452 10.3051 0.992398 10.3675 0.963648 10.4363C0.934898 10.5051 0.920096 10.5789 0.920102 10.6534V13.9438C0.91102 14.0236 0.918905 14.1045 0.943239 14.181C0.967573 14.2576 1.00781 14.3281 1.06131 14.3881C1.11481 14.448 1.18036 14.496 1.25369 14.5288C1.32701 14.5616 1.40644 14.5786 1.48677 14.5786C1.56711 14.5786 1.64654 14.5616 1.71986 14.5288C1.79318 14.496 1.85874 14.448 1.91224 14.3881C1.96574 14.3281 2.00598 14.2576 2.03031 14.181C2.05464 14.1045 2.06253 14.0236 2.05345 13.9438V12.4083C2.94866 13.2384 4.04843 13.8157 5.24012 14.081C6.43182 14.3463 7.67261 14.29 8.83543 13.918C9.99824 13.5461 11.0413 12.8717 11.8578 11.964C12.6742 11.0563 13.2348 9.94792 13.4819 8.75234C13.5013 8.67827 13.5051 8.601 13.4932 8.52537C13.4813 8.44975 13.4539 8.3774 13.4127 8.31286C13.3715 8.24833 13.3174 8.193 13.2539 8.15036C13.1903 8.10771 13.1186 8.07866 13.0432 8.06503V8.06503Z" fill="#EEF6FF"/>
</svg>
