<svg width="20" height="20" viewBox="0 0 20 20" fill="none" xmlns="http://www.w3.org/2000/svg">
<path d="M7.38686 13.9902V10.7068H17.621C17.8097 10.7068 17.9907 10.6318 18.1242 10.4983C18.2577 10.3648 18.3327 10.1838 18.3327 9.99504C18.3327 9.80628 18.2577 9.62525 18.1242 9.49178C17.9907 9.3583 17.8097 9.28332 17.621 9.28332H7.38686V6.00937C7.38792 5.91983 7.36199 5.83204 7.31246 5.75743C7.26293 5.68283 7.19209 5.62486 7.10916 5.59107C7.02622 5.55728 6.93504 5.54924 6.84748 5.56799C6.75991 5.58675 6.68002 5.63143 6.6182 5.69621L1.79919 9.68188C1.75702 9.72339 1.72352 9.77287 1.70066 9.82745C1.67779 9.88203 1.66602 9.94061 1.66602 9.99979C1.66602 10.059 1.67779 10.1175 1.70066 10.1721C1.72352 10.2267 1.75702 10.2762 1.79919 10.3177L6.6182 14.3034C6.68002 14.3681 6.75991 14.4128 6.84748 14.4316C6.93504 14.4503 7.02622 14.4423 7.10916 14.4085C7.19209 14.3747 7.26293 14.3167 7.31246 14.2421C7.36199 14.1675 7.38792 14.0797 7.38686 13.9902Z" fill="#EEF6FF"/>
</svg>
