<svg width="18" height="18" viewBox="0 0 18 18" fill="none" xmlns="http://www.w3.org/2000/svg">
<g clip-path="url(#clip0_15417_453)">
<path opacity="0.1" d="M9.13477 1.96582H11.6201L12.6797 2.13281C13.6587 2.4144 14.5197 3.00514 15.1328 3.81641C15.746 4.62777 16.0777 5.616 16.0791 6.63184V11.4648C16.2391 11.6256 16.3854 11.8008 16.5127 11.9912C16.9 12.5709 17.1074 13.253 17.1074 13.9502C17.1054 14.8844 16.7329 15.7798 16.0723 16.4404C15.4116 17.101 14.5163 17.4726 13.582 17.4746C12.8849 17.4746 12.2037 17.2681 11.624 16.8809C11.5909 16.8587 11.5596 16.8337 11.5273 16.8105C11.4819 16.8121 11.4362 16.8152 11.3906 16.8154H5.55078C4.30266 16.8174 3.10443 16.3249 2.21973 15.4473C1.33517 14.5696 0.836071 13.3779 0.832031 12.1338V6.63184C0.833403 5.61597 1.16609 4.62778 1.7793 3.81641C2.39249 3.00513 3.25334 2.41433 4.23242 2.13281L5.29199 1.9502H8.06738L9.13477 1.96582Z" fill="#EEF6FF"/>
<path d="M6.61027 10.034C6.61483 10.1679 6.57921 10.3 6.508 10.4135C6.43679 10.5269 6.33325 10.6164 6.21071 10.6705C6.08818 10.7245 5.95227 10.7407 5.82048 10.7168C5.6887 10.693 5.56707 10.6302 5.47127 10.5366C5.37548 10.443 5.30989 10.3229 5.28297 10.1917C5.25606 10.0605 5.26903 9.92423 5.32023 9.80047C5.37143 9.67671 5.45851 9.57112 5.57025 9.49729C5.682 9.42346 5.81328 9.38478 5.94721 9.38622C6.03328 9.38522 6.11871 9.40117 6.19862 9.43319C6.27853 9.4652 6.35135 9.51264 6.41292 9.5728C6.47449 9.63295 6.52361 9.70465 6.55747 9.78379C6.59134 9.86293 6.60928 9.94797 6.61027 10.034V10.034ZM9.08724 10.034C9.09027 10.1658 9.05397 10.2955 8.98298 10.4065C8.91199 10.5175 8.80952 10.6049 8.68866 10.6574C8.5678 10.7099 8.43402 10.7253 8.30441 10.7014C8.1748 10.6776 8.05524 10.6157 7.96098 10.5236C7.86671 10.4315 7.80203 10.3134 7.77519 10.1844C7.74834 10.0553 7.76055 9.92124 7.81026 9.79919C7.85997 9.67714 7.94491 9.57267 8.05426 9.49912C8.16361 9.42556 8.29239 9.38626 8.42417 9.38622C8.51025 9.38522 8.59568 9.40117 8.67559 9.43319C8.7555 9.4652 8.82832 9.51264 8.88989 9.5728C8.95146 9.63295 9.00058 9.70465 9.03444 9.78379C9.0683 9.86293 9.08624 9.94797 9.08724 10.034V10.034ZM6.60265 12.4958C6.58503 12.6603 6.50718 12.8126 6.38407 12.9232C6.26096 13.0339 6.10129 13.0951 5.93577 13.0951C5.77026 13.0951 5.61059 13.0339 5.48748 12.9232C5.36437 12.8126 5.28652 12.6603 5.2689 12.4958C5.28652 12.3312 5.36437 12.1789 5.48748 12.0683C5.61059 11.9577 5.77026 11.8965 5.93577 11.8965C6.10129 11.8965 6.26096 11.9577 6.38407 12.0683C6.50718 12.1789 6.58503 12.3312 6.60265 12.4958V12.4958ZM13.5763 17.625C12.8603 17.625 12.1603 17.4127 11.565 17.0149C10.9697 16.6171 10.5057 16.0517 10.2317 15.3902C9.95765 14.7287 9.88596 14.0008 10.0256 13.2986C10.1653 12.5963 10.5101 11.9513 11.0164 11.445C11.5227 10.9387 12.1678 10.5939 12.87 10.4542C13.5723 10.3145 14.3001 10.3862 14.9617 10.6602C15.6232 10.9342 16.1886 11.3982 16.5863 11.9936C16.9841 12.5889 17.1965 13.2888 17.1965 14.0048C17.1944 14.9643 16.8124 15.884 16.1339 16.5624C15.4554 17.2409 14.5358 17.623 13.5763 17.625V17.625ZM13.5763 11.5278C13.0864 11.5278 12.6075 11.6731 12.2001 11.9453C11.7928 12.2175 11.4753 12.6043 11.2878 13.0569C11.1004 13.5095 11.0513 14.0076 11.1469 14.488C11.2425 14.9685 11.4784 15.4099 11.8248 15.7563C12.1712 16.1027 12.6126 16.3386 13.093 16.4342C13.5735 16.5298 14.0716 16.4807 14.5242 16.2932C14.9768 16.1058 15.3636 15.7883 15.6358 15.3809C15.908 14.9736 16.0532 14.4947 16.0532 14.0048C16.0532 13.6795 15.9892 13.3574 15.8647 13.0569C15.7402 12.7564 15.5578 12.4833 15.3277 12.2533C15.0977 12.0233 14.8247 11.8409 14.5242 11.7164C14.2236 11.5919 13.9015 11.5278 13.5763 11.5278V11.5278ZM15.2987 13.7381L13.9954 15.3995C13.9418 15.4671 13.8734 15.5215 13.7954 15.5585C13.7175 15.5955 13.6321 15.6141 13.5458 15.6129C13.4591 15.6166 13.3729 15.5991 13.2945 15.5619C13.2162 15.5247 13.1481 15.469 13.0961 15.3995L12.1587 14.1954C12.0657 14.0751 12.0243 13.9228 12.0436 13.772C12.0629 13.6212 12.1413 13.4843 12.2616 13.3913C12.3818 13.2983 12.5341 13.2569 12.6849 13.2762C12.8357 13.2955 12.9726 13.3739 13.0656 13.4942L13.5458 14.1191L14.3994 13.0293C14.4937 12.9115 14.6308 12.8358 14.7807 12.8186C14.9306 12.8015 15.0812 12.8444 15.1996 12.9378C15.2594 12.9833 15.3094 13.0403 15.3468 13.1055C15.3843 13.1706 15.4083 13.2426 15.4175 13.3171C15.4267 13.3916 15.421 13.4673 15.4006 13.5396C15.3802 13.6119 15.3455 13.6793 15.2987 13.7381V13.7381ZM12.6693 2.10775V0.972152C12.6693 0.830659 12.6131 0.694961 12.5131 0.59491C12.413 0.49486 12.2773 0.438652 12.1358 0.438652C11.9943 0.438652 11.8586 0.49486 11.7586 0.59491C11.6585 0.694961 11.6023 0.830659 11.6023 0.972152V1.93245H11.3661H9.07962V0.972152C9.08862 0.897258 9.08163 0.821307 9.05913 0.74931C9.03662 0.677314 8.9991 0.610909 8.94904 0.554478C8.89898 0.498046 8.83753 0.452871 8.76873 0.421934C8.69994 0.390997 8.62536 0.375 8.54993 0.375C8.4745 0.375 8.39992 0.390997 8.33112 0.421934C8.26233 0.452871 8.20087 0.498046 8.15082 0.554478C8.10076 0.610909 8.06324 0.677314 8.04073 0.74931C8.01822 0.821307 8.01124 0.897258 8.02024 0.972152V1.88673H5.52803H5.28414V0.972152C5.28414 0.830659 5.22793 0.694961 5.12788 0.59491C5.02783 0.49486 4.89213 0.438652 4.75064 0.438652C4.60915 0.438652 4.47345 0.49486 4.3734 0.59491C4.27335 0.694961 4.21714 0.830659 4.21714 0.972152V2.10775C3.23669 2.38697 2.37352 2.97725 1.75769 3.78965C1.14186 4.60206 0.806708 5.59259 0.802734 6.61202V12.1376C0.808785 13.3854 1.30978 14.5799 2.19573 15.4587C3.08168 16.3375 4.28016 16.8288 5.52803 16.8247H9.20156C9.27062 16.8247 9.339 16.8111 9.40281 16.7847C9.46661 16.7583 9.52458 16.7196 9.57341 16.6707C9.62225 16.6219 9.66098 16.5639 9.68741 16.5001C9.71384 16.4363 9.72744 16.3679 9.72744 16.2989C9.72744 16.1594 9.67204 16.0256 9.57341 15.927C9.47479 15.8284 9.34103 15.773 9.20156 15.773H5.52803C5.04797 15.776 4.57204 15.6843 4.12747 15.5031C3.6829 15.322 3.27843 15.0549 2.93721 14.7172C2.59599 14.3795 2.32472 13.9779 2.13893 13.5352C1.95315 13.0926 1.85649 12.6176 1.85449 12.1376V7.1379H15.0167V9.50817C15.0187 9.64833 15.0758 9.78208 15.1756 9.88049C15.2755 9.9789 15.41 10.0341 15.5502 10.034V10.034C15.6199 10.0351 15.6891 10.0222 15.7538 9.99622C15.8185 9.97025 15.8774 9.93167 15.927 9.88274C15.9767 9.83381 16.0161 9.77549 16.043 9.71119C16.0699 9.64688 16.0837 9.57787 16.0837 9.50817V6.61202C16.0797 5.59259 15.7446 4.60206 15.1288 3.78965C14.5129 2.97725 13.6498 2.38697 12.6693 2.10775V2.10775ZM1.92309 6.08614C2.01665 5.44984 2.27769 4.84985 2.67946 4.34764C3.08122 3.84543 3.60928 3.45906 4.20952 3.2281V3.83781C4.20952 3.97931 4.26573 4.11501 4.36578 4.21506C4.46583 4.31511 4.60153 4.37132 4.74302 4.37132C4.88451 4.37132 5.02021 4.31511 5.12026 4.21506C5.22031 4.11501 5.27652 3.97931 5.27652 3.83781V2.99946C5.36036 2.99946 5.43657 2.99946 5.52041 2.99946H8.05072V3.83781C8.04172 3.91271 8.04871 3.98866 8.07122 4.06066C8.09373 4.13265 8.13125 4.19906 8.1813 4.25549C8.23136 4.31192 8.29281 4.3571 8.36161 4.38803C8.43041 4.41897 8.50498 4.43497 8.58041 4.43497C8.65585 4.43497 8.73042 4.41897 8.79922 4.38803C8.86802 4.3571 8.92947 4.31192 8.97953 4.25549C9.02958 4.19906 9.0671 4.13265 9.08961 4.06066C9.11212 3.98866 9.1191 3.91271 9.1101 3.83781V2.97659H11.3965H11.6328V3.81495C11.6328 3.95644 11.689 4.09214 11.7891 4.19219C11.8891 4.29224 12.0248 4.34845 12.1663 4.34845C12.3078 4.34845 12.4435 4.29224 12.5435 4.19219C12.6436 4.09214 12.6998 3.95644 12.6998 3.81495V3.20523C13.3 3.43619 13.8281 3.82257 14.2299 4.32478C14.6316 4.82699 14.8927 5.42698 14.9862 6.06327L1.92309 6.08614Z" fill="#EEF6FF"/>
</g>
<defs>
<clipPath id="clip0_15417_453">
<rect width="18" height="18" fill="white"/>
</clipPath>
</defs>
</svg>
