<svg width="16" height="16" viewBox="0 0 16 16" fill="none" xmlns="http://www.w3.org/2000/svg">
<g clip-path="url(#clip0_15392_441)">
<path opacity="0.1" d="M11.1265 0.899902H4.87427C3.82033 0.899902 2.80956 1.31858 2.06431 2.06382C1.31907 2.80907 0.900391 3.81984 0.900391 4.87378V11.126C0.900391 12.18 1.31907 13.1907 2.06431 13.936C2.80956 14.6812 3.82033 15.0999 4.87427 15.0999H11.1265C12.1804 15.0999 13.1912 14.6812 13.9365 13.936C14.6817 13.1907 15.1004 12.18 15.1004 11.126V4.89365C15.103 4.37013 15.0022 3.85124 14.8036 3.36681C14.6051 2.88238 14.3128 2.44196 13.9435 2.07084C13.5742 1.69972 13.1353 1.40523 12.6519 1.20429C12.1684 1.00334 11.65 0.899896 11.1265 0.899902Z" fill="#EEF6FF"/>
<path d="M11.1542 0.833496H4.84323C3.77939 0.833496 2.75913 1.2561 2.00688 2.00835C1.25464 2.76059 0.832031 3.78086 0.832031 4.84469V11.1556C0.832031 12.2195 1.25464 13.2397 2.00688 13.992C2.75913 14.7442 3.77939 15.1668 4.84323 15.1668H11.1542C12.218 15.1668 13.2383 14.7442 13.9905 13.992C14.7428 13.2397 15.1654 12.2195 15.1654 11.1556V4.86475C15.168 4.3363 15.0662 3.81255 14.8658 3.32357C14.6654 2.83459 14.3704 2.39003 13.9976 2.01543C13.6249 1.64083 13.1818 1.34357 12.6938 1.14074C12.2059 0.937903 11.6826 0.833489 11.1542 0.833496ZM11.1542 1.83629C11.3585 1.83578 11.5623 1.85594 11.7625 1.89646L11.9832 1.96332C12.1009 1.99513 12.217 2.03307 12.3308 2.07697C12.4167 2.11489 12.4994 2.1596 12.5781 2.21067C12.6651 2.25747 12.7586 2.29758 12.8456 2.35106L13.0795 2.54494C13.1464 2.60511 13.2266 2.65859 13.2935 2.72544C13.3603 2.7923 13.4205 2.87921 13.4873 2.95943C13.5489 3.02544 13.6069 3.09462 13.6612 3.16667C13.7146 3.25358 13.7548 3.34049 13.8016 3.4274C13.8484 3.51431 13.9018 3.59453 13.942 3.68144C13.9821 3.76835 13.9954 3.86195 14.0222 3.94886C14.0604 4.04682 14.0917 4.14735 14.1158 4.2497C14.1158 4.33661 14.1158 4.4302 14.1492 4.52379C14.1673 4.63217 14.1784 4.74158 14.1826 4.85138H1.81477C1.80819 4.74228 1.80819 4.63289 1.81477 4.52379C1.81477 4.43689 1.81477 4.33661 1.81477 4.2497C1.81477 4.16279 1.87494 4.05582 1.90837 3.96223C1.93121 3.86685 1.96024 3.77305 1.99528 3.68144C2.03137 3.60579 2.07154 3.53214 2.11561 3.46083C2.1691 3.36055 2.21589 3.26027 2.27606 3.16667L2.40977 3.00623C2.48239 2.90615 2.5605 2.81018 2.64375 2.71876L2.851 2.60511C2.94651 2.51494 3.04694 2.43013 3.15184 2.35106L3.31897 2.25747C3.42905 2.19079 3.54289 2.13052 3.65992 2.07697C3.74683 2.03685 3.83374 2.02348 3.92065 1.99006C4.00756 1.95663 4.12121 1.91652 4.22818 1.89646C4.42842 1.85594 4.63224 1.83578 4.83654 1.83629H11.1542ZM11.1542 14.2041H4.84323C4.04003 14.2041 3.26973 13.8851 2.70179 13.3171C2.13384 12.7492 1.81477 11.9789 1.81477 11.1757V5.82743H14.1826V11.1757C14.1826 11.5734 14.1043 11.9672 13.9521 12.3346C13.7999 12.7021 13.5768 13.0359 13.2956 13.3171C13.0144 13.5983 12.6805 13.8214 12.3131 13.9736C11.9457 14.1258 11.5519 14.2041 11.1542 14.2041V14.2041ZM5.9463 11.871C5.81394 11.8681 5.68748 11.8156 5.59198 11.7239L4.25492 10.3868C4.20602 10.3403 4.16716 10.2843 4.14071 10.2222C4.11427 10.1601 4.10081 10.0933 4.10115 10.0258C4.10673 9.89077 4.16141 9.7624 4.25492 9.66481L5.59198 8.38123C5.63559 8.3214 5.69191 8.27197 5.7569 8.23649C5.82188 8.20101 5.89392 8.18036 5.96783 8.17603C6.04174 8.1717 6.11569 8.18379 6.18438 8.21143C6.25306 8.23908 6.31477 8.28159 6.36507 8.33592C6.41537 8.39024 6.45302 8.45503 6.47531 8.52564C6.4976 8.59624 6.50397 8.67091 6.49397 8.74427C6.48398 8.81763 6.45786 8.88786 6.41749 8.94993C6.37713 9.012 6.32352 9.06435 6.26051 9.10324L5.32457 10.0258L6.30063 10.9818C6.39452 11.0758 6.44726 11.2033 6.44726 11.3361C6.44726 11.469 6.39452 11.5964 6.30063 11.6905C6.211 11.7951 6.08362 11.86 5.9463 11.871V11.871ZM10.0511 11.871C9.91533 11.8687 9.78581 11.8135 9.69009 11.7172C9.59619 11.6232 9.54345 11.4958 9.54345 11.3629C9.54345 11.23 9.59619 11.1026 9.69009 11.0086L10.6728 10.0258L9.70346 9.09656C9.63501 9.00265 9.6013 8.88788 9.6081 8.77188C9.6149 8.65587 9.66178 8.54583 9.74073 8.46056C9.81968 8.37529 9.9258 8.32009 10.0409 8.3044C10.1561 8.28871 10.2731 8.31351 10.372 8.37454L11.7091 9.65812C11.8026 9.75572 11.8572 9.88408 11.8628 10.0191C11.8632 10.0866 11.8497 10.1534 11.8233 10.2155C11.7968 10.2776 11.7579 10.3336 11.7091 10.3801L10.372 11.7172C10.286 11.804 10.1726 11.8584 10.0511 11.871V11.871Z" fill="#EEF6FF"/>
</g>
<defs>
<clipPath id="clip0_15392_441">
<rect width="16" height="16" fill="white"/>
</clipPath>
</defs>
</svg>
