<svg width="24" height="25" viewBox="0 0 24 25" fill="none" xmlns="http://www.w3.org/2000/svg">
<path opacity="0.3" d="M11.1711 4.88019C11.3805 5.39928 11.7398 5.84421 12.2031 6.15822C12.6664 6.47222 13.2128 6.64104 13.7726 6.64314H16.9975C18.0128 6.65701 19.0058 6.94247 19.8735 7.46988C20.7412 7.99729 21.4518 8.74741 21.9316 9.6423C21.836 8.14122 21.173 6.7327 20.077 5.70258C18.981 4.67245 17.5341 4.09788 16.03 4.09546H10.8379L11.1711 4.88019Z" fill="white"/>
<path d="M17.0736 6.53591H13.8486C13.2907 6.53834 12.7449 6.37242 12.2828 6.05982C11.8206 5.74722 11.4634 5.30248 11.258 4.7837L10.9892 3.88073C10.779 3.35132 10.4121 2.89877 9.93756 2.5837C9.46302 2.26862 8.90354 2.10606 8.33405 2.11778H6.18411C5.53666 2.11637 4.89529 2.24267 4.29672 2.48946C3.69815 2.73625 3.15413 3.09868 2.69582 3.55599C2.2375 4.01331 1.87389 4.55653 1.62579 5.15457C1.3777 5.7526 1.25 6.39369 1.25 7.04114V17.9413C1.25 18.6867 1.39681 19.4248 1.68205 20.1134C1.96729 20.802 2.38536 21.4277 2.91242 21.9548C3.97684 23.0192 5.42051 23.6172 6.92584 23.6172H17.0736C17.8193 23.6186 18.558 23.4728 19.2473 23.188C19.9365 22.9033 20.5628 22.4853 21.0901 21.9579C21.6175 21.4306 22.0355 20.8043 22.3202 20.1151C22.605 19.4258 22.7508 18.6871 22.7494 17.9413V12.2117C22.7494 10.7064 22.1514 9.26275 21.087 8.19832C20.0226 7.13389 18.5789 6.53591 17.0736 6.53591ZM15.7621 16.3611L12.7522 18.9196C12.592 19.0524 12.3905 19.1251 12.1824 19.1251C11.9744 19.1251 11.7728 19.0524 11.6127 18.9196L10.8925 18.3498L8.3878 16.3826C8.23673 16.2514 8.13986 16.0687 8.11602 15.87C8.09218 15.6713 8.14307 15.4709 8.2588 15.3077C8.38862 15.1544 8.57157 15.056 8.77096 15.0321C8.97034 15.0081 9.1714 15.0605 9.33377 15.1787L11.3225 16.7481V11.2658C11.3225 11.0519 11.4074 10.8469 11.5586 10.6957C11.7098 10.5445 11.9149 10.4595 12.1287 10.4595C12.3425 10.4595 12.5476 10.5445 12.6988 10.6957C12.85 10.8469 12.9349 11.0519 12.9349 11.2658V16.6406L14.6656 15.1572C14.8242 15.0352 15.0228 14.9774 15.222 14.9953C15.4212 15.0133 15.6064 15.1056 15.7406 15.2539C15.8873 15.3995 15.9716 15.5965 15.9757 15.8032C15.9797 16.0098 15.9031 16.21 15.7621 16.3611V16.3611Z" fill="white"/>
</svg>
