<svg width="24" height="24" viewBox="0 0 24 24" fill="none" xmlns="http://www.w3.org/2000/svg">
<path d="M22.44 8.92001C22.3357 7.22382 21.5888 5.63115 20.3515 4.46627C19.1142 3.30139 17.4794 2.65189 15.78 2.65001H10.78C10.5362 2.2237 10.1839 1.86957 9.7588 1.62366C9.33372 1.37775 8.85108 1.24882 8.36 1.25001H6.18C4.87248 1.25001 3.61852 1.76942 2.69396 2.69397C1.76941 3.61853 1.25 4.87249 1.25 6.18001V17.07C1.25 18.5764 1.84843 20.0212 2.91363 21.0864C3.97884 22.1516 5.42357 22.75 6.93 22.75H17.07C18.5764 22.75 20.0212 22.1516 21.0864 21.0864C22.1516 20.0212 22.75 18.5764 22.75 17.07V11.35C22.6908 10.535 22.5873 9.72379 22.44 8.92001ZM15.78 4.18001C16.637 4.18209 17.4797 4.39924 18.231 4.81157C18.9823 5.22389 19.618 5.8182 20.08 6.54001C19.1819 5.97335 18.142 5.67179 17.08 5.67001H13.89C13.3831 5.66954 12.8859 5.53047 12.4523 5.26785C12.0188 5.00523 11.6652 4.62905 11.43 4.18001H15.78ZM21.22 17.07C21.22 18.1707 20.7828 19.2262 20.0045 20.0045C19.2262 20.7828 18.1706 21.22 17.07 21.22H6.93C5.82935 21.22 4.77378 20.7828 3.99551 20.0045C3.21723 19.2262 2.78 18.1707 2.78 17.07V6.18001C2.78 5.27827 3.13821 4.41347 3.77584 3.77585C4.41346 3.13822 5.27826 2.78001 6.18 2.78001H8.34C8.5934 2.77783 8.84138 2.85334 9.05057 2.99637C9.25975 3.1394 9.42009 3.34309 9.51 3.58001L9.87 4.48001C10.1881 5.28152 10.7394 5.96917 11.4524 6.45407C12.1655 6.93896 13.0077 7.19881 13.87 7.20001H17.05C18.1506 7.20001 19.2062 7.63724 19.9845 8.41552C20.7628 9.19379 21.2 10.2494 21.2 11.35L21.22 17.07Z" fill="black"/>
<path d="M15.44 15L12.6 17.5L12.48 17.57L12.38 17.62C12.2954 17.6594 12.2033 17.6797 12.11 17.6797C12.0167 17.6797 11.9246 17.6594 11.84 17.62L11.75 17.57L11.64 17.51L8.58 15C8.44325 14.8755 8.35586 14.706 8.33383 14.5223C8.3118 14.3387 8.35658 14.1533 8.46 14C8.58076 13.8575 8.75096 13.7659 8.93643 13.7436C9.12191 13.7214 9.30895 13.7701 9.46 13.88L11.31 15.37V10.16C11.31 10.0615 11.3294 9.96399 11.3671 9.873C11.4048 9.782 11.46 9.69932 11.5297 9.62968C11.5993 9.56003 11.682 9.50479 11.773 9.4671C11.864 9.42941 11.9615 9.41001 12.06 9.41001C12.1585 9.41001 12.256 9.42941 12.347 9.4671C12.438 9.50479 12.5207 9.56003 12.5903 9.62968C12.66 9.69932 12.7152 9.782 12.7529 9.873C12.7906 9.96399 12.81 10.0615 12.81 10.16V15.26L14.42 13.87C14.5663 13.7553 14.7503 13.6999 14.9356 13.7147C15.1209 13.7295 15.2938 13.8135 15.42 13.95C15.5535 14.0911 15.6295 14.2769 15.6332 14.4711C15.6369 14.6653 15.568 14.8539 15.44 15Z" fill="black"/>
</svg>
