<svg width="14" height="14" viewBox="0 0 14 14" fill="none" xmlns="http://www.w3.org/2000/svg">
<g clip-path="url(#clip0_2774_73733)">
<path opacity="0.1" d="M10.421 13.1244C9.78792 13.1244 8.37795 13.1244 6.96798 13.1244H3.51499C3.15524 13.1271 2.79854 13.0582 2.4656 12.9219C2.13267 12.7855 1.83014 12.5844 1.57557 12.3302C1.31514 12.0815 1.1083 11.7822 0.96777 11.4507C0.827238 11.1192 0.755975 10.7624 0.758359 10.4023V7.14499C0.764303 6.5401 0.899919 5.94352 1.15606 5.39551C1.41219 4.84749 1.78289 4.36079 2.24314 3.96824L5.17818 1.4303C5.68251 0.996419 6.32572 0.757812 6.991 0.757812C7.65627 0.757813 8.29949 0.996419 8.80381 1.4303L11.7216 3.99126C12.1756 4.38999 12.539 4.88137 12.7871 5.43233C13.0353 5.98328 13.1626 6.58101 13.1603 7.18527V10.4196C13.1607 10.7754 13.0889 11.1276 12.9495 11.455C12.81 11.7824 12.6057 12.0782 12.3489 12.3245C12.0961 12.5783 11.7957 12.7797 11.4648 12.917C11.1339 13.0543 10.7792 13.1248 10.421 13.1244Z" fill="black"/>
<path d="M10.5007 13.2519C9.86051 13.2519 8.43467 13.2519 7.00882 13.2519H3.51697C3.15316 13.2546 2.79245 13.185 2.45577 13.0471C2.11909 12.9092 1.81315 12.7058 1.55571 12.4488C1.29235 12.1973 1.08319 11.8946 0.941076 11.5593C0.798961 11.2241 0.726896 10.8633 0.729307 10.4992V7.20517C0.735318 6.59347 0.87246 5.99018 1.13148 5.43599C1.3905 4.88181 1.76537 4.38963 2.2308 3.99266L5.19888 1.42615C5.70888 0.987386 6.35934 0.746094 7.0321 0.746094C7.70487 0.746094 8.35532 0.987386 8.86533 1.42615L11.8159 4.01594C12.2751 4.41916 12.6425 4.91607 12.8935 5.47323C13.1445 6.03038 13.2732 6.63484 13.2709 7.2459V10.5166C13.2712 10.8765 13.1987 11.2327 13.0577 11.5637C12.9166 11.8948 12.71 12.1939 12.4503 12.4429C12.1947 12.6997 11.8909 12.9033 11.5563 13.0422C11.2217 13.181 10.8629 13.2523 10.5007 13.2519ZM8.75475 12.3789H10.5007C11.0005 12.3807 11.4811 12.1864 11.8392 11.8377C12.0142 11.6674 12.1532 11.4638 12.2482 11.2389C12.3432 11.014 12.3921 10.7724 12.3921 10.5282V7.25754C12.3926 6.77145 12.2889 6.2909 12.0881 5.8482C11.8874 5.40551 11.5941 5.01094 11.2281 4.69103L8.28917 2.10124C7.93916 1.79859 7.49191 1.63203 7.02919 1.63203C6.56648 1.63203 6.11923 1.79859 5.76922 2.10124L2.80114 4.67939C2.4356 4.99841 2.1426 5.39199 1.94183 5.83368C1.74106 6.27536 1.63719 6.75491 1.63719 7.24008V10.5341C1.63556 10.7783 1.68259 11.0203 1.77551 11.2461C1.86844 11.472 2.00541 11.677 2.17843 11.8493C2.53966 12.1911 3.0197 12.379 3.51697 12.3731H8.75475V12.3789ZM7.44531 11.1393V9.47487C7.44531 9.35911 7.39932 9.24809 7.31746 9.16623C7.23561 9.08438 7.12459 9.03839 7.00882 9.03839C6.89306 9.03839 6.78204 9.08438 6.70019 9.16623C6.61833 9.24809 6.57234 9.35911 6.57234 9.47487V11.1393C6.57234 11.2551 6.61833 11.3661 6.70019 11.448C6.78204 11.5298 6.89306 11.5758 7.00882 11.5758C7.12459 11.5758 7.23561 11.5298 7.31746 11.448C7.39932 11.3661 7.44531 11.2551 7.44531 11.1393Z" fill="black"/>
</g>
<defs>
<clipPath id="clip0_2774_73733">
<rect width="14" height="14" fill="white"/>
</clipPath>
</defs>
</svg>
