<svg width="18" height="18" viewBox="0 0 18 18" fill="none" xmlns="http://www.w3.org/2000/svg">
<path opacity="0.1" d="M14.8496 8.3623C14.8496 11.9867 11.9115 14.9248 8.28711 14.9248C4.66274 14.9248 1.72461 11.9867 1.72461 8.3623C1.72461 4.73794 4.66274 1.7998 8.28711 1.7998C11.9115 1.7998 14.8496 4.73794 14.8496 8.3623Z" fill="#EEF6FF"/>
<path d="M8.30273 1.55249C12.0306 1.55249 15.0527 4.57458 15.0527 8.30249C15.0527 9.93666 14.4712 11.4345 13.5049 12.6023L16.2539 15.3513C16.5029 15.6003 16.5029 16.0047 16.2539 16.2537C16.0049 16.5026 15.6005 16.5026 15.3516 16.2537L12.6025 13.5046C11.4348 14.4709 9.93688 15.0525 8.30273 15.0525C4.57485 15.0524 1.55273 12.0304 1.55273 8.30249C1.55275 4.57461 4.57486 1.55253 8.30273 1.55249ZM8.30273 2.80347C5.26578 2.80351 2.80373 5.26553 2.80371 8.30249C2.80371 11.3395 5.26577 13.8015 8.30273 13.8015C11.3397 13.8015 13.8018 11.3395 13.8018 8.30249C13.8017 5.2655 11.3397 2.80347 8.30273 2.80347Z" fill="#EEF6FF"/>
</svg>
