<svg width="18" height="18" viewBox="0 0 18 18" fill="none" xmlns="http://www.w3.org/2000/svg">
<g clip-path="url(#clip0_652_31472)">
<path opacity="0.1" d="M16.6045 3.99186C16.3342 3.49045 15.9688 3.04857 15.5296 2.6918C15.0903 2.33502 14.5858 2.07044 14.0454 1.91337L11.4638 1.15202C10.6139 0.895419 9.70616 0.917659 8.86937 1.21558C8.03259 1.51351 7.30926 2.07198 6.80202 2.81177C6.68352 2.83061 6.56611 2.85602 6.45033 2.8879L3.87625 3.64925C2.78984 3.98214 1.8774 4.73958 1.33882 5.75565C0.800236 6.77172 0.679425 7.96356 1.00285 9.07009L2.39465 13.8362C2.55502 14.3848 2.82009 14.8958 3.17471 15.3401C3.52933 15.7844 3.96655 16.1532 4.46136 16.4254C4.95618 16.6977 5.49888 16.868 6.05843 16.9267C6.61799 16.9853 7.18343 16.9312 7.72241 16.7674L10.2965 16.006C10.8398 15.8551 11.3484 15.5963 11.793 15.2447C12.676 15.1909 13.5211 14.8606 14.2123 14.2991C14.9036 13.7375 15.4072 12.9721 15.6542 12.1079L17.0011 7.34943C17.1618 6.79161 17.2095 6.20639 17.1413 5.62925C17.0731 5.05211 16.8905 4.49506 16.6045 3.99186Z" fill="black"/>
<path d="M8.87007 1.18033C9.71467 0.879653 10.6314 0.857863 11.4892 1.11686L14.0947 1.88541C14.6401 2.04395 15.1494 2.31053 15.5927 2.67057C16.0361 3.03068 16.4048 3.47697 16.6777 3.98307C16.9663 4.49088 17.1508 5.05299 17.2197 5.63541C17.2885 6.21785 17.2402 6.80879 17.0781 7.37174L15.7187 12.1755C15.4694 13.0477 14.9613 13.8206 14.2636 14.3874C13.5659 14.9542 12.7125 15.2872 11.8212 15.3415C11.3724 15.6964 10.8589 15.9577 10.3105 16.11L7.71186 16.8786C7.1681 17.0438 6.59766 17.0988 6.03315 17.0397C5.46847 16.9805 4.92021 16.8085 4.42085 16.5339C3.92147 16.2591 3.47994 15.8865 3.12202 15.4381C2.76407 14.9897 2.49678 14.4733 2.33491 13.9196L0.929636 9.10905C0.60318 7.99216 0.724901 6.78893 1.2685 5.76334C1.81213 4.73775 2.73345 3.97338 3.83003 3.63737L6.42866 2.86881C6.54539 2.83668 6.66368 2.81066 6.78315 2.79166C7.29515 2.04496 8.02545 1.48105 8.87007 1.18033ZM4.15522 4.76725C3.75411 4.88871 3.38028 5.08939 3.05561 5.35807C2.73094 5.62676 2.46123 5.95784 2.26264 6.33268C2.06407 6.7075 1.94051 7.119 1.89839 7.54264C1.85632 7.96615 1.8968 8.39386 2.01753 8.80143L3.42182 13.612C3.66784 14.4323 4.2236 15.1204 4.96675 15.5251C5.70988 15.9298 6.58037 16.0188 7.38764 15.7721L9.90229 15.026L7.71968 14.3805C7.17326 14.2207 6.66285 13.9526 6.2187 13.5915C5.77459 13.2303 5.4055 12.783 5.13178 12.276C4.85801 11.7689 4.68528 11.2116 4.62397 10.6364C4.5627 10.0613 4.61382 9.47944 4.77436 8.92448L6.12593 4.16764L4.15522 4.76725ZM10.2499 2.13053C9.57103 2.1383 8.91227 2.36645 8.36909 2.78092C7.82586 3.19546 7.42589 3.77515 7.22846 4.43619L5.86909 9.23991C5.75247 9.64893 5.71655 10.0774 5.76264 10.5006C5.8088 10.9241 5.93663 11.3344 6.13862 11.7077C6.34059 12.0809 6.61243 12.4103 6.9394 12.6764C7.26649 12.9426 7.64256 13.14 8.04487 13.2585L10.6503 14.027C11.4627 14.2647 12.3348 14.1656 13.0751 13.7506C13.4409 13.5464 13.763 13.2697 14.0224 12.9372C14.2817 12.6047 14.4735 12.2229 14.5859 11.8141L15.9531 7.01139L15.9228 7.04948C16.0395 6.64024 16.0754 6.21128 16.0292 5.78776C15.9831 5.36432 15.8552 4.95392 15.6533 4.58073C15.4514 4.20778 15.1793 3.87893 14.8525 3.61295C14.5254 3.34683 14.1493 3.14837 13.747 3.02994L11.1416 2.26139C10.8519 2.17555 10.5516 2.13136 10.2499 2.13053ZM8.95893 9.05534L11.0654 9.61588C11.2056 9.65401 11.3264 9.74591 11.4023 9.87174C11.4782 9.99756 11.5036 10.1482 11.4736 10.2926C11.4384 10.4144 11.3665 10.522 11.2675 10.5993C11.1685 10.6765 11.0475 10.7202 10.9228 10.7233H10.7792L8.67866 10.1618C8.60737 10.1438 8.54049 10.1114 8.48139 10.0671C8.42213 10.0225 8.37184 9.96629 8.33393 9.90201C8.29615 9.83788 8.27046 9.767 8.25971 9.69303C8.24898 9.6189 8.25337 9.54302 8.27143 9.47037C8.30875 9.32301 8.40169 9.19661 8.53022 9.11881C8.65903 9.04104 8.81372 9.018 8.95893 9.05534ZM9.73628 6.04264L13.2861 6.97233C13.4269 7.01523 13.5462 7.11239 13.6181 7.24283C13.6899 7.37319 13.7092 7.52705 13.6718 7.67155C13.6377 7.79411 13.5651 7.9026 13.4658 7.98014C13.3665 8.05761 13.2452 8.10042 13.1201 8.10221H12.9765L9.42671 7.18033C9.28857 7.12988 9.1739 7.02777 9.10639 6.89518C9.03909 6.76277 9.02342 6.60918 9.06245 6.46549C9.10163 6.32159 9.19337 6.19814 9.31831 6.11979C9.44319 6.04147 9.59238 6.01364 9.73628 6.04264Z" fill="black"/>
</g>
<defs>
<clipPath id="clip0_652_31472">
<rect width="18" height="18" fill="white"/>
</clipPath>
</defs>
</svg>
