<svg width="18" height="18" viewBox="0 0 18 18" fill="none" xmlns="http://www.w3.org/2000/svg">
<path d="M15.2333 2.67533H12.3333C12.3081 2.1408 12.0805 1.63589 11.6967 1.26296C11.3129 0.890022 10.8017 0.67697 10.2667 0.666992H8.29167C7.75306 0.668519 7.23562 0.876941 6.84633 1.24917C6.45704 1.62141 6.22565 2.12899 6.20001 2.66699H2.76667C2.04319 2.6692 1.3501 2.95815 0.839298 3.47051C0.3285 3.98287 0.0416684 4.67684 0.0416718 5.40033V9.13366C0.0424829 9.47003 0.117604 9.80207 0.261663 10.106C0.405722 10.41 0.615161 10.6784 0.875005 10.892V14.967C0.875005 15.5748 1.11645 16.1577 1.54622 16.5874C1.97599 17.0172 2.55888 17.2587 3.16667 17.2587H14.8333C15.4411 17.2587 16.024 17.0172 16.4538 16.5874C16.8836 16.1577 17.125 15.5748 17.125 14.967V10.892C17.3848 10.6784 17.5943 10.41 17.7383 10.106C17.8824 9.80207 17.9575 9.47003 17.9583 9.13366V5.40033C17.9561 4.67829 17.6683 3.98645 17.1578 3.47589C16.6472 2.96533 15.9554 2.67752 15.2333 2.67533ZM8.29167 1.92533H10.2667C10.474 1.92429 10.6742 2.00055 10.8283 2.13924C10.9824 2.27792 11.0793 2.46906 11.1 2.67533H7.45834C7.47907 2.46906 7.57593 2.27792 7.73003 2.13924C7.88412 2.00055 8.08437 1.92429 8.29167 1.92533ZM1.29167 5.40033C1.29167 5.00913 1.44707 4.63396 1.72369 4.35734C2.00031 4.08073 2.37548 3.92533 2.76667 3.92533H15.2667C15.6579 3.92533 16.033 4.08073 16.3097 4.35734C16.5863 4.63396 16.7417 5.00913 16.7417 5.40033V9.13366C16.7428 9.3253 16.6894 9.51331 16.5875 9.67565C16.4857 9.838 16.3397 9.96797 16.1667 10.0503L16.0333 10.1087C15.9276 10.1523 15.8144 10.1749 15.7 10.1753H2.33334C2.21896 10.1749 2.10575 10.1523 2.00001 10.1087L1.86667 10.0503C1.69363 9.96797 1.54763 9.838 1.44579 9.67565C1.34396 9.51331 1.2905 9.3253 1.29167 9.13366V5.40033ZM15.875 11.417V14.967C15.875 15.2433 15.7653 15.5082 15.5699 15.7036C15.3746 15.8989 15.1096 16.0087 14.8333 16.0087H3.16667C2.8904 16.0087 2.62545 15.8989 2.4301 15.7036C2.23475 15.5082 2.12501 15.2433 2.12501 14.967V11.417H15.875ZM7.47501 9.15866C7.47501 8.9929 7.54085 8.83393 7.65806 8.71672C7.77527 8.59951 7.93425 8.53366 8.10001 8.53366H10.4583C10.6241 8.53366 10.7831 8.59951 10.9003 8.71672C11.0175 8.83393 11.0833 8.9929 11.0833 9.15866C11.0833 9.32442 11.0175 9.48339 10.9003 9.6006C10.7831 9.71781 10.6241 9.78366 10.4583 9.78366H8.10001C7.93492 9.7815 7.7772 9.71496 7.66045 9.59821C7.5437 9.48147 7.47716 9.32375 7.47501 9.15866Z" fill="white"/>
</svg>
