<svg width="18" height="17" viewBox="0 0 18 17" fill="none" xmlns="http://www.w3.org/2000/svg">
<path d="M15.1917 2.00833H12.2917C12.2664 1.47381 12.0388 0.968898 11.655 0.595964C11.2712 0.223029 10.76 0.0099777 10.225 0H8.25C7.71139 0.00152644 7.19395 0.209949 6.80466 0.582181C6.41537 0.954414 6.18398 1.462 6.15833 2H2.725C2.00152 2.00221 1.30842 2.29115 0.797626 2.80351C0.286828 3.31588 -3.36239e-06 4.00985 0 4.73333V8.46667C0.000811178 8.80304 0.0759319 9.13508 0.219991 9.43904C0.36405 9.74301 0.573489 10.0114 0.833333 10.225V14.3C0.833333 14.9078 1.07478 15.4907 1.50455 15.9205C1.93432 16.3502 2.51721 16.5917 3.125 16.5917H14.7917C15.3995 16.5917 15.9823 16.3502 16.4121 15.9205C16.8419 15.4907 17.0833 14.9078 17.0833 14.3V10.225C17.3432 10.0114 17.5526 9.74301 17.6967 9.43904C17.8407 9.13508 17.9159 8.80304 17.9167 8.46667V4.73333C17.9145 4.01129 17.6267 3.31946 17.1161 2.8089C16.6055 2.29833 15.9137 2.01053 15.1917 2.00833ZM8.25 1.25833H10.225C10.4323 1.25729 10.6326 1.33356 10.7866 1.47224C10.9407 1.61093 11.0376 1.80206 11.0583 2.00833H7.41667C7.43739 1.80206 7.53426 1.61093 7.68835 1.47224C7.84244 1.33356 8.04269 1.25729 8.25 1.25833ZM1.25 4.73333C1.25 4.34214 1.4054 3.96697 1.68202 3.69035C1.95863 3.41373 2.33381 3.25833 2.725 3.25833H15.225C15.6162 3.25833 15.9914 3.41373 16.268 3.69035C16.5446 3.96697 16.7 4.34214 16.7 4.73333V8.46667C16.7012 8.65831 16.6477 8.84631 16.5459 9.00866C16.444 9.17101 16.298 9.30098 16.125 9.38333L15.9917 9.44167C15.8859 9.48526 15.7727 9.5079 15.6583 9.50833H2.29167C2.17729 9.5079 2.06408 9.48526 1.95833 9.44167L1.825 9.38333C1.65195 9.30098 1.50596 9.17101 1.40412 9.00866C1.30229 8.84631 1.24882 8.65831 1.25 8.46667V4.73333ZM15.8333 10.75V14.3C15.8333 14.5763 15.7236 14.8412 15.5282 15.0366C15.3329 15.2319 15.0679 15.3417 14.7917 15.3417H3.125C2.84873 15.3417 2.58378 15.2319 2.38843 15.0366C2.19308 14.8412 2.08333 14.5763 2.08333 14.3V10.75H15.8333ZM7.43333 8.49167C7.43333 8.32591 7.49918 8.16693 7.61639 8.04972C7.7336 7.93251 7.89257 7.86667 8.05833 7.86667H10.4167C10.5824 7.86667 10.7414 7.93251 10.8586 8.04972C10.9758 8.16693 11.0417 8.32591 11.0417 8.49167C11.0417 8.65743 10.9758 8.8164 10.8586 8.93361C10.7414 9.05082 10.5824 9.11667 10.4167 9.11667H8.05833C7.89324 9.11451 7.73552 9.04797 7.61878 8.93122C7.50203 8.81448 7.43549 8.65675 7.43333 8.49167Z" fill="#EEF6FF"/>
</svg>
