<svg width="11" height="14" viewBox="0 0 11 14" fill="none" xmlns="http://www.w3.org/2000/svg">
<path fill-rule="evenodd" clip-rule="evenodd" d="M2.5603 0.583008H6.8509L10.4873 4.37337V11.7456C10.4873 12.6692 9.74016 13.4163 8.81982 13.4163H2.5603C1.63676 13.4163 0.889595 12.6692 0.889595 11.7456V2.25371C0.889579 1.33017 1.63674 0.583008 2.5603 0.583008Z" fill="#E5252A"/>
<path opacity="0.302" fill-rule="evenodd" clip-rule="evenodd" d="M6.84772 0.583008V4.3445H10.4874L6.84772 0.583008Z" fill="white"/>
<path d="M2.74631 10.1586V7.81445H3.7436C3.99052 7.81445 4.18614 7.88179 4.33365 8.01968C4.48115 8.15437 4.55492 8.33716 4.55492 8.56483C4.55492 8.7925 4.48115 8.97529 4.33365 9.10997C4.18614 9.24787 3.99052 9.31521 3.7436 9.31521H3.34597V10.1586H2.74631ZM3.34597 8.80534H3.67626C3.76605 8.80534 3.8366 8.7861 3.88471 8.74121C3.9328 8.69953 3.95847 8.6418 3.95847 8.56485C3.95847 8.48789 3.93282 8.43016 3.88471 8.38848C3.83661 8.34358 3.76606 8.32435 3.67626 8.32435H3.34597V8.80534ZM4.80182 10.1586V7.81445H5.63236C5.79591 7.81445 5.94983 7.83689 6.09413 7.885C6.23843 7.9331 6.36991 8.00045 6.48535 8.09345C6.6008 8.18323 6.69379 8.30508 6.76113 8.45901C6.82526 8.61294 6.86054 8.78931 6.86054 8.98812C6.86054 9.18374 6.82527 9.3601 6.76113 9.51402C6.69379 9.66794 6.6008 9.7898 6.48535 9.87958C6.3699 9.97257 6.23843 10.0399 6.09413 10.088C5.94983 10.1361 5.79591 10.1586 5.63236 10.1586H4.80182ZM5.38865 9.64871H5.56181C5.6548 9.64871 5.74139 9.6391 5.82156 9.61664C5.89851 9.5942 5.97227 9.55892 6.04283 9.51082C6.11017 9.46273 6.16468 9.39537 6.20316 9.30559C6.24164 9.21581 6.26088 9.10997 6.26088 8.98812C6.26088 8.86305 6.24164 8.75724 6.20316 8.66745C6.16468 8.57767 6.11017 8.51033 6.04283 8.46222C5.97227 8.41413 5.89853 8.37884 5.82156 8.3564C5.74139 8.33396 5.6548 8.32433 5.56181 8.32433H5.38865V9.64871ZM7.16198 10.1586V7.81445H8.82948V8.32433H7.76164V8.69951H8.61462V9.20618H7.76164V10.1586H7.16198Z" fill="white"/>
</svg>
