<svg width="34" height="34" viewBox="0 0 34 34" fill="none" xmlns="http://www.w3.org/2000/svg">
<path d="M2.73438 20.188C3.016 20.1881 3.2862 20.2994 3.48535 20.4985C3.68449 20.6977 3.79675 20.9679 3.79688 21.2495V25.1597C3.80063 26.4985 4.33514 27.7816 5.2832 28.7271C6.23114 29.6722 7.5149 30.2035 8.85352 30.2036H12.126C12.4077 30.2036 12.6787 30.315 12.8779 30.5142C13.0772 30.7134 13.1885 30.9843 13.1885 31.2661C13.1884 31.5477 13.077 31.8179 12.8779 32.0171C12.6787 32.2163 12.4078 32.3286 12.126 32.3286H8.85352C6.95131 32.3285 5.12673 31.5736 3.78027 30.23C2.4337 28.8861 1.67563 27.0621 1.67188 25.1597V21.2495C1.672 20.9679 1.78329 20.6977 1.98242 20.4985C2.18168 20.2993 2.45258 20.188 2.73438 20.188ZM24.4941 18.771C25.6362 18.7712 26.5625 19.6972 26.5625 20.8394V24.4946C26.5623 25.6366 25.6361 26.5627 24.4941 26.563H20.8389C19.6967 26.563 18.7708 25.6367 18.7705 24.4946V20.8394C18.7705 19.697 19.6966 18.771 20.8389 18.771H24.4941ZM13.1602 7.43799C14.3023 7.43799 15.2283 8.36327 15.2285 9.50537V13.1606C15.2285 14.303 14.3025 15.229 13.1602 15.229H9.50488C8.36279 15.2288 7.4375 14.3028 7.4375 13.1606V9.50537C7.43775 8.36343 8.36294 7.43824 9.50488 7.43799H13.1602ZM25.1592 1.67236C27.0616 1.67612 28.8846 2.43427 30.2285 3.78076C31.5723 5.12724 32.327 6.95169 32.3271 8.854V12.7505C32.3234 13.031 32.211 13.2992 32.0127 13.4976C31.8142 13.696 31.5453 13.8093 31.2646 13.813C30.9842 13.8092 30.7159 13.6959 30.5176 13.4976C30.3192 13.2992 30.2059 13.031 30.2021 12.7505V8.854C30.202 7.51544 29.6716 6.23162 28.7266 5.28369C27.7812 4.33563 26.4981 3.80111 25.1592 3.79736H20.6396C20.5003 3.7973 20.3622 3.76964 20.2334 3.71631C20.1045 3.66291 19.9873 3.5845 19.8887 3.48584C19.79 3.38718 19.7116 3.27002 19.6582 3.14111C19.6049 3.01235 19.5772 2.87424 19.5771 2.73486C19.5771 2.59533 19.6048 2.45655 19.6582 2.32764C19.7116 2.19875 19.79 2.08156 19.8887 1.98291C19.9873 1.88427 20.1045 1.80583 20.2334 1.75244C20.3622 1.69911 20.5003 1.67242 20.6396 1.67236H25.1592Z" fill="#EEF6FF"/>
<path opacity="0.3" d="M31.2646 20.188C31.5464 20.188 31.8173 20.2993 32.0166 20.4985C32.2157 20.6977 32.327 20.9679 32.3271 21.2495V25.1597C32.3234 27.0597 31.5671 28.8816 30.2236 30.2251C28.8802 31.5684 27.059 32.3249 25.1592 32.3286H20.6396C20.358 32.3285 20.0878 32.2162 19.8887 32.0171C19.6895 31.8179 19.5772 31.5478 19.5771 31.2661C19.5771 30.9843 19.6894 30.7134 19.8887 30.5142C20.0878 30.3151 20.3581 30.2037 20.6396 30.2036H25.1592C26.4956 30.1999 27.7767 29.6672 28.7217 28.7222C29.6666 27.7772 30.1984 26.496 30.2021 25.1597V21.2495C30.2023 20.9679 30.3145 20.6977 30.5137 20.4985C30.7128 20.2994 30.983 20.1881 31.2646 20.188ZM13.1602 18.771C14.3025 18.771 15.2285 19.697 15.2285 20.8394V24.4946C15.2283 25.6367 14.3023 26.563 13.1602 26.563H9.50488C8.36294 26.5627 7.43775 25.6366 7.4375 24.4946V20.8394C7.4375 19.6972 8.36279 18.7712 9.50488 18.771H13.1602ZM24.4941 7.43799C25.6361 7.43824 26.5623 8.36343 26.5625 9.50537V13.1606C26.5625 14.3028 25.6362 15.2288 24.4941 15.229H20.8389C19.6966 15.229 18.7705 14.303 18.7705 13.1606V9.50537C18.7708 8.36327 19.6967 7.43799 20.8389 7.43799H24.4941ZM12.126 1.67236C12.4078 1.67236 12.6787 1.78365 12.8779 1.98291C13.0772 2.18217 13.1885 2.45307 13.1885 2.73486C13.1884 3.01648 13.0771 3.28669 12.8779 3.48584C12.6787 3.6851 12.4078 3.79736 12.126 3.79736H8.85352C7.51233 3.79747 6.22571 4.32946 5.27734 5.27783C4.32898 6.2262 3.79698 7.51282 3.79688 8.854V12.7505C3.79315 13.031 3.67979 13.2992 3.48145 13.4976C3.28308 13.6959 3.01487 13.8092 2.73438 13.813C2.45372 13.8093 2.1848 13.696 1.98633 13.4976C1.78801 13.2992 1.67561 13.031 1.67188 12.7505V8.854C1.67198 6.94923 2.42851 5.12276 3.77539 3.77588C5.12227 2.429 6.94875 1.67247 8.85352 1.67236H12.126Z" fill="#EEF6FF"/>
</svg>
