<svg width="34" height="34" viewBox="0 0 34 34" fill="none" xmlns="http://www.w3.org/2000/svg">
<path opacity="0.3" d="M13.3824 32.0275L5.6607 25.9192C5.00042 25.4028 4.46749 24.7503 4.10078 24.0091C3.73408 23.268 3.54284 22.4569 3.54102 21.6351V9.66269C3.54164 8.59908 3.85949 7.55828 4.45636 6.66538C5.05323 5.77248 5.90371 5.06549 6.9056 4.62938L14.6441 1.20868C15.3886 0.879009 16.1976 0.708374 17.0162 0.708374C17.8348 0.708374 18.6438 0.879009 19.3882 1.20868L27.0931 4.62938C28.095 5.06549 28.9455 5.77248 29.5423 6.66538C30.1392 7.55828 30.4571 8.59908 30.4577 9.66269V21.6351C30.4579 22.4556 30.2693 23.2659 29.9055 24.0069C29.5418 24.748 29.012 25.4012 28.3548 25.9192L20.6331 32.0275C19.6134 32.8446 18.3313 33.2917 17.0078 33.2917C15.6842 33.2917 14.4021 32.8446 13.3824 32.0275V32.0275Z" fill="#EEF6FF"/>
<path d="M20.4014 12.4092C20.5895 12.3955 20.7783 12.4238 20.9541 12.4902C21.13 12.5567 21.289 12.6603 21.418 12.7939C21.5468 12.9275 21.6427 13.0874 21.6992 13.2617C21.7558 13.4362 21.772 13.6208 21.7451 13.8018C21.7182 13.9827 21.649 14.1557 21.5439 14.3076C21.4389 14.4594 21.3002 14.5867 21.1377 14.6797L18.7607 16.9287L21.2891 19.3213C21.5253 19.5504 21.6582 19.8618 21.6582 20.1855C21.6581 20.5091 21.5252 20.8199 21.2891 21.0488C21.1662 21.1624 21.021 21.2509 20.8623 21.3096C20.7035 21.3683 20.5342 21.396 20.3643 21.3906C20.2024 21.3923 20.0417 21.3624 19.8916 21.3037C19.7415 21.245 19.6045 21.1588 19.4893 21.0488L16.9482 18.6436L14.4082 21.0488C14.1974 21.2438 13.925 21.3642 13.6348 21.3906C13.4664 21.3917 13.2994 21.3603 13.1436 21.2988C12.9878 21.2373 12.8461 21.1468 12.7266 21.0322C12.4903 20.8032 12.3574 20.4927 12.3574 20.1689C12.3574 19.8452 12.4903 19.5347 12.7266 19.3057L15.1865 16.9766L12.7598 14.6797C12.5236 14.4507 12.3917 14.14 12.3916 13.8164C12.3916 13.4928 12.5237 13.1822 12.7598 12.9531C13.0013 12.7272 13.3244 12.6006 13.6602 12.6006C13.996 12.6006 14.319 12.7272 14.5605 12.9531L16.999 15.2607L19.4551 12.9365C19.5619 12.7858 19.7027 12.6605 19.8662 12.5693C20.0299 12.4781 20.213 12.4229 20.4014 12.4092Z" fill="#EEF6FF"/>
</svg>
