<svg width="34" height="34" viewBox="0 0 34 34" fill="none" xmlns="http://www.w3.org/2000/svg">
<path d="M3.08068 32.3234C2.92328 32.3251 2.76718 32.2948 2.6218 32.2344C2.47643 32.1741 2.34478 32.0849 2.23482 31.9723C2.01067 31.7479 1.88477 31.4436 1.88477 31.1264C1.88477 30.8092 2.01067 30.505 2.23482 30.2806L30.0843 2.54287C30.1964 2.43179 30.3293 2.34388 30.4754 2.28416C30.6215 2.22445 30.7779 2.1941 30.9358 2.19484C31.0936 2.19558 31.2497 2.2274 31.3953 2.28848C31.5408 2.34957 31.6729 2.43872 31.784 2.55085C31.895 2.66297 31.9829 2.79588 32.0427 2.94198C32.1024 3.08808 32.1327 3.24451 32.132 3.40234C32.1312 3.56018 32.0994 3.71632 32.0383 3.86185C31.9772 4.00738 31.8881 4.13946 31.776 4.25054L3.92654 31.9723C3.81603 32.0842 3.68428 32.1729 3.53903 32.2332C3.39378 32.2935 3.23795 32.3241 3.08068 32.3234V32.3234Z" fill="#EEF6FF"/>
<path opacity="0.3" d="M29.7012 9.4209C29.709 9.55361 29.709 9.68663 29.7012 9.81934V21.5342C29.7072 22.3342 29.5359 23.1258 29.1992 23.8516C28.8626 24.5772 28.3694 25.2194 27.7549 25.7314L20.4287 31.7158C19.4626 32.5053 18.2535 32.9365 17.0059 32.9365C15.7581 32.9365 14.5482 32.5053 13.582 31.7158L10.1348 28.9072L29.7012 9.4209ZM17.0049 1.0625C17.7841 1.0625 18.5547 1.22943 19.2637 1.55273L26.5889 4.9043C27.5589 5.34865 28.3759 6.07112 28.9355 6.97949L8.36328 27.4551L6.24023 25.7314C5.61699 25.224 5.11454 24.5843 4.76953 23.8584C4.42445 23.1323 4.2459 22.3381 4.24609 21.5342V9.82031C4.24975 8.78093 4.55211 7.7643 5.11816 6.89258C5.68422 6.02089 6.48953 5.33046 7.4375 4.9043L14.7471 1.55273C15.4558 1.22951 16.2259 1.06256 17.0049 1.0625Z" fill="#EEF6FF"/>
</svg>
