<svg width="35" height="34" viewBox="0 0 35 34" fill="none" xmlns="http://www.w3.org/2000/svg">
<path opacity="0.3" d="M13.9899 32.0281L6.26813 25.9198C5.60785 25.4034 5.07492 24.7509 4.70821 24.0097C4.3415 23.2686 4.15026 22.4575 4.14844 21.6357V9.6633C4.14907 8.59969 4.46691 7.55889 5.06378 6.66599C5.66065 5.77309 6.51114 5.0661 7.51302 4.62999L15.2516 1.20929C15.996 0.879619 16.805 0.708984 17.6236 0.708984C18.4422 0.708984 19.2512 0.879619 19.9957 1.20929L27.7006 4.62999C28.7024 5.0661 29.5529 5.77309 30.1498 6.66599C30.7467 7.55889 31.0645 8.59969 31.0651 9.6633V21.6357C31.0653 22.4562 30.8767 23.2665 30.513 24.0075C30.1492 24.7486 29.6195 25.4018 28.9623 25.9198L21.2406 32.0281C20.2209 32.8452 18.9388 33.2923 17.6152 33.2923C16.2916 33.2923 15.0095 32.8452 13.9899 32.0281Z" fill="white"/>
<path d="M15.3859 21.5369C15.2163 21.5358 15.0487 21.5022 14.8928 21.4379C14.7368 21.3736 14.5956 21.2798 14.4774 21.1622L11.9035 18.6211C11.7809 18.5081 11.683 18.3723 11.6157 18.2219C11.5484 18.0715 11.5131 17.9095 11.5118 17.7455C11.5105 17.5816 11.5433 17.4191 11.6083 17.2677C11.6732 17.1163 11.7689 16.9792 11.8898 16.8643C12.0106 16.7495 12.1541 16.6594 12.3116 16.5994C12.4692 16.5394 12.6376 16.5107 12.8068 16.5151C12.9761 16.5194 13.1427 16.5567 13.2968 16.6246C13.4508 16.6926 13.5892 16.7899 13.7036 16.9108L15.3859 18.5397L21.5262 12.7571C21.6331 12.6063 21.7735 12.4807 21.9372 12.3894C22.1008 12.2982 22.2836 12.2437 22.4719 12.23C22.6602 12.2163 22.8493 12.2437 23.0252 12.3101C23.2012 12.3766 23.3595 12.4805 23.4884 12.6141C23.6174 12.7477 23.7137 12.9076 23.7703 13.082C23.8269 13.2565 23.8423 13.441 23.8155 13.622C23.7886 13.803 23.7201 13.9759 23.6151 14.1278C23.51 14.2798 23.3711 14.407 23.2085 14.5L16.2606 21.1785C16.1485 21.2938 16.0128 21.3852 15.8622 21.4469C15.7116 21.5086 15.5494 21.5392 15.3859 21.5369Z" fill="white"/>
</svg>
