<svg width="20" height="21" viewBox="0 0 20 21" fill="none" xmlns="http://www.w3.org/2000/svg">
<path d="M13.4637 19.4541H6.53501C5.0641 19.4722 3.64616 18.9057 2.59262 17.8791C1.53907 16.8525 0.936056 15.4497 0.916016 13.9788V7.55708C0.938273 6.08767 1.54226 4.68704 2.59556 3.66224C3.64887 2.63745 5.06554 2.07211 6.53501 2.09018H9.06989C9.23877 2.0879 9.40176 2.15224 9.52354 2.26927C9.64531 2.38631 9.71608 2.54661 9.72051 2.71545C9.71608 2.88429 9.64531 3.04459 9.52354 3.16162C9.40176 3.27865 9.23877 3.343 9.06989 3.34072H6.53501C5.97353 3.33402 5.41623 3.43799 4.89494 3.64669C4.37365 3.85539 3.89857 4.16473 3.49683 4.55705C3.0951 4.94936 2.77458 5.41697 2.55358 5.93317C2.33258 6.44937 2.21542 7.00405 2.20881 7.56553V13.9872C2.21542 14.5487 2.33258 15.1034 2.55358 15.6196C2.77458 16.1358 3.0951 16.6034 3.49683 16.9957C3.89857 17.388 4.37365 17.6974 4.89494 17.9061C5.41623 18.1148 5.97353 18.2187 6.53501 18.212H13.4637C14.0252 18.2187 14.5825 18.1148 15.1038 17.9061C15.6251 17.6974 16.1001 17.388 16.5019 16.9957C16.9036 16.6034 17.2241 16.1358 17.4451 15.6196C17.6661 15.1034 17.7833 14.5487 17.7899 13.9872V7.55708C17.8081 7.39838 17.884 7.25191 18.0032 7.14558C18.1224 7.03924 18.2765 6.98048 18.4363 6.98048C18.596 6.98048 18.7502 7.03924 18.8694 7.14558C18.9886 7.25191 19.0645 7.39838 19.0827 7.55708V13.9788C19.0626 15.4497 18.4596 16.8525 17.4061 17.8791C16.3525 18.9057 14.9346 19.4722 13.4637 19.4541V19.4541ZM13.168 8.40204L13.6665 8.01335C13.6979 7.99299 13.7346 7.98215 13.7721 7.98215C13.8096 7.98215 13.8463 7.99299 13.8777 8.01335L14.3762 8.40204C14.5928 8.57108 14.8522 8.67643 15.1254 8.70628C15.3985 8.73613 15.6745 8.6893 15.9225 8.57103C16.1731 8.46245 16.3865 8.28308 16.5366 8.05493C16.6867 7.82679 16.767 7.55978 16.7675 7.28669V2.76615C16.7608 2.38364 16.6036 2.01919 16.3299 1.75186C16.0563 1.48453 15.6883 1.33588 15.3057 1.33816H12.2554C11.8728 1.33588 11.5048 1.48453 11.2312 1.75186C10.9575 2.01919 10.8003 2.38364 10.7936 2.76615V7.32894C10.7963 7.60155 10.8773 7.86764 11.0272 8.09539C11.177 8.32315 11.3893 8.50294 11.6386 8.61328C11.8398 8.70668 12.0589 8.75567 12.2807 8.75692C12.6075 8.73945 12.9193 8.61471 13.168 8.40204V8.40204ZM12.8553 7.0332L12.3652 7.42188C12.337 7.4382 12.3049 7.44679 12.2723 7.44679C12.2397 7.44679 12.2076 7.4382 12.1793 7.42188C12.1512 7.40771 12.1276 7.38596 12.1112 7.35909C12.0948 7.33221 12.0862 7.30128 12.0864 7.26979V2.76615C12.0864 2.72133 12.1042 2.67834 12.1359 2.64665C12.1676 2.61496 12.2106 2.59715 12.2554 2.59715H15.2888C15.3336 2.59715 15.3766 2.61496 15.4083 2.64665C15.44 2.67834 15.4578 2.72133 15.4578 2.76615V7.32894C15.458 7.36043 15.4494 7.39136 15.433 7.41823C15.4166 7.44511 15.393 7.46686 15.3649 7.48103C15.3366 7.49734 15.3045 7.50593 15.2719 7.50593C15.2393 7.50593 15.2072 7.49734 15.179 7.48103L14.6889 7.1008C14.426 6.89867 14.1037 6.78908 13.7721 6.78908C13.4405 6.78908 13.1182 6.89867 12.8553 7.1008V7.0332ZM11.571 10.7679C11.5699 10.6847 11.5524 10.6025 11.5195 10.526C11.4866 10.4496 11.439 10.3803 11.3794 10.3223C11.3198 10.2642 11.2493 10.2185 11.172 10.1876C11.0947 10.1568 11.012 10.1415 10.9288 10.1427H6.6195C6.53558 10.1404 6.45204 10.1549 6.37375 10.1852C6.29546 10.2155 6.22397 10.2611 6.16343 10.3192C6.1029 10.3774 6.05453 10.447 6.02113 10.5241C5.98773 10.6011 5.96997 10.684 5.96888 10.7679C5.96999 10.8523 5.98769 10.9356 6.02098 11.013C6.05428 11.0905 6.10251 11.1607 6.16293 11.2196C6.22335 11.2784 6.29476 11.3248 6.3731 11.356C6.45144 11.3873 6.53517 11.4028 6.6195 11.4017H10.9288C11.0977 11.4017 11.2597 11.3352 11.3799 11.2166C11.5001 11.098 11.5688 10.9368 11.571 10.7679V10.7679ZM13.5228 13.945C13.5217 13.8618 13.5042 13.7796 13.4714 13.7031C13.4385 13.6266 13.3909 13.5574 13.3313 13.4993C13.2716 13.4413 13.2011 13.3955 13.1238 13.3647C13.0465 13.3339 12.9639 13.3186 12.8807 13.3197H6.05338C5.97016 13.3186 5.88753 13.3339 5.81021 13.3647C5.7329 13.3955 5.66241 13.4413 5.60278 13.4993C5.54315 13.5574 5.49554 13.6266 5.46267 13.7031C5.4298 13.7796 5.41231 13.8618 5.41121 13.945C5.41343 14.1138 5.48207 14.275 5.60226 14.3936C5.72245 14.5122 5.88452 14.5787 6.05338 14.5787H12.8807C13.0495 14.5787 13.2116 14.5122 13.3318 14.3936C13.452 14.275 13.5206 14.1138 13.5228 13.945V13.945Z" fill="#EEF6FF"/>
</svg>
