<svg width="18" height="18" viewBox="0 0 18 18" fill="none" xmlns="http://www.w3.org/2000/svg">
<path opacity="0.1" d="M11.1944 0.449707C11.5477 0.451776 11.8859 0.59348 12.1358 0.843262C12.3858 1.09323 12.5273 1.43214 12.5294 1.78564V1.98779H13.4874C13.5672 1.98964 13.6461 2.00751 13.7188 2.04053C14.6401 2.39645 15.432 3.02427 15.9883 3.84033C16.5447 4.65646 16.8395 5.62315 16.834 6.61084V12.4526C16.8351 13.097 16.7088 13.7359 16.463 14.3315C16.2171 14.927 15.8566 15.4684 15.4014 15.9243C14.9462 16.3803 14.4048 16.742 13.8096 16.9888C13.2146 17.2355 12.5768 17.3628 11.9327 17.3628H6.02643C4.72583 17.3606 3.47954 16.8418 2.56061 15.9214C1.6416 15.0009 1.12506 13.7534 1.12506 12.4526V6.60303C1.12011 5.61658 1.41419 4.65123 1.96881 3.83545C2.52351 3.01964 3.31326 2.39086 4.23248 2.03271C4.30646 2.00219 4.38585 1.98724 4.46588 1.98779H5.47467V1.78564C5.4767 1.43216 5.61828 1.09323 5.86823 0.843262C6.11819 0.593294 6.45711 0.451733 6.81061 0.449707H11.1944Z" fill="black"/>
<path d="M11.9971 17.625H5.9978C4.67468 17.6229 3.40649 17.0958 2.47166 16.1594C1.53683 15.2231 1.01178 13.9541 1.01178 12.6309V6.67989C1.00675 5.67639 1.30611 4.69495 1.87036 3.86509C2.43461 3.03522 3.23722 2.39595 4.17227 2.03164C4.24766 2.00046 4.32853 1.98469 4.41012 1.98526C4.4917 1.98583 4.57234 2.00273 4.64729 2.03495C4.72224 2.06718 4.78998 2.11409 4.84652 2.17291C4.90305 2.23173 4.94723 2.30128 4.97647 2.37745C5.00901 2.4522 5.02606 2.53277 5.02659 2.61429C5.02712 2.69582 5.01112 2.7766 4.97955 2.85177C4.94798 2.92694 4.9015 2.99492 4.84291 3.05162C4.78433 3.10832 4.71486 3.15255 4.6387 3.18164C3.92648 3.45436 3.31417 3.93745 2.8832 4.56666C2.45224 5.19587 2.22305 5.94138 2.22612 6.70402V12.6551C2.22823 13.6576 2.62688 14.6186 3.33502 15.3282C4.04317 16.0379 5.00331 16.4386 6.00584 16.4428H12.0051C13.0083 16.4407 13.9697 16.0407 14.6783 15.3306C15.3869 14.6205 15.7849 13.6583 15.7849 12.6551V6.68794C15.7884 5.92418 15.5596 5.17741 15.1286 4.54683C14.6977 3.91624 14.0851 3.43168 13.3723 3.15752C13.2955 3.13042 13.225 3.08806 13.165 3.03298C13.105 2.9779 13.0568 2.91125 13.0233 2.83704C12.9898 2.76283 12.9717 2.68261 12.97 2.6012C12.9683 2.51979 12.9831 2.43889 13.0135 2.36336C13.044 2.28783 13.0894 2.21925 13.147 2.16174C13.2047 2.10423 13.2734 2.05899 13.349 2.02875C13.4246 1.99851 13.5055 1.98388 13.5869 1.98576C13.6683 1.98764 13.7485 2.00598 13.8226 2.03969C14.7598 2.40176 15.5648 3.04024 16.1307 3.87043C16.6966 4.70061 16.9967 5.68324 16.9912 6.68794V12.6309C16.9922 13.2864 16.864 13.9356 16.6139 14.5415C16.3638 15.1473 15.9967 15.6979 15.5336 16.1618C15.0705 16.6256 14.5205 16.9936 13.9151 17.2447C13.3096 17.4958 12.6606 17.625 12.0051 17.625H11.9971ZM12.6726 2.57045V1.76626C12.6705 1.39793 12.5233 1.04528 12.2628 0.784823C12.0023 0.524367 11.6497 0.377111 11.2814 0.375H6.71353C6.3452 0.377111 5.99255 0.524367 5.73209 0.784823C5.47164 1.04528 5.32438 1.39793 5.32227 1.76626V2.57045C5.32226 2.94018 5.46859 3.29489 5.72927 3.55708C5.98995 3.81927 6.34381 3.96763 6.71353 3.96976H11.2814C11.6511 3.96763 12.0049 3.81927 12.2656 3.55708C12.5263 3.29489 12.6726 2.94018 12.6726 2.57045ZM11.2814 1.58934C11.3304 1.58934 11.3775 1.60882 11.4122 1.64351C11.4468 1.6782 11.4663 1.72524 11.4663 1.7743V2.57045C11.4663 2.61951 11.4468 2.66656 11.4122 2.70124C11.3775 2.73593 11.3304 2.75542 11.2814 2.75542H6.71353C6.66447 2.75542 6.61743 2.73593 6.58274 2.70124C6.54805 2.66656 6.52856 2.61951 6.52856 2.57045V1.76626C6.52856 1.7172 6.54805 1.67016 6.58274 1.63547C6.61743 1.60078 6.66447 1.58129 6.71353 1.58129L11.2814 1.58934ZM6.83416 7.81381C6.7413 7.81347 6.64958 7.8343 6.56598 7.87471C6.48237 7.91512 6.40907 7.97405 6.35164 8.04703C6.26692 8.17103 6.2315 8.32218 6.25233 8.47091C6.27315 8.61964 6.34871 8.75526 6.46423 8.85122L9.80164 11.4729L8.00829 11.9152C7.86507 11.9489 7.73909 12.0337 7.65408 12.1538C7.56906 12.2739 7.53087 12.4209 7.54668 12.5672C7.56249 12.7134 7.63123 12.8489 7.73994 12.948C7.84865 13.0472 7.98985 13.1031 8.13696 13.1054H8.28171L11.2974 12.3656C11.3349 12.345 11.3758 12.3314 11.4181 12.3253C11.5179 12.2725 11.6018 12.1939 11.6612 12.0978C11.7206 12.0017 11.7532 11.8914 11.7558 11.7785V8.56171C11.7581 8.48226 11.744 8.40319 11.7144 8.32942C11.6848 8.25566 11.6403 8.18878 11.5837 8.13295C11.5271 8.07712 11.4597 8.03354 11.3855 8.00492C11.3114 7.97631 11.2321 7.96326 11.1527 7.96661C11.0736 7.96443 10.9948 7.97828 10.9212 8.00731C10.8476 8.03634 10.7806 8.07997 10.7242 8.13556C10.6679 8.19115 10.6234 8.25755 10.5933 8.33079C10.5633 8.40402 10.5484 8.48257 10.5495 8.56171V10.532L7.19605 7.93444C7.09192 7.85561 6.96476 7.81322 6.83416 7.81381Z" fill="#EEF6FF"/>
</svg>
