<svg width="24" height="25" viewBox="0 0 24 25" fill="none" xmlns="http://www.w3.org/2000/svg">
<path opacity="0.3" d="M17.5949 3.85849V4.06749C17.5949 4.65097 17.3632 5.21055 16.9506 5.62313C16.538 6.03571 15.9784 6.26749 15.3949 6.26749H9.12494C8.54146 6.26749 7.98188 6.03571 7.5693 5.62313C7.15672 5.21055 6.92494 4.65097 6.92494 4.06749V3.78149C5.48243 3.98275 4.16095 4.69762 3.20314 5.79486C2.24534 6.89209 1.7155 8.29803 1.71094 9.75449V17.8065C1.71094 19.414 2.34951 20.9556 3.48616 22.0923C4.62282 23.2289 6.16446 23.8675 7.77194 23.8675H16.2199C17.8274 23.8675 19.3691 23.2289 20.5057 22.0923C21.6424 20.9556 22.2809 19.414 22.2809 17.8065V9.75449C22.2794 8.38724 21.8156 7.06069 20.9649 5.99033C20.1142 4.91996 18.9265 4.16867 17.5949 3.85849V3.85849Z" fill="white"/>
<path d="M13.1602 10.2051C13.3552 10.2147 13.541 10.2934 13.6836 10.4268C13.8262 10.5603 13.917 10.7405 13.9395 10.9346C13.9619 11.1287 13.915 11.3247 13.8066 11.4873C13.6983 11.6498 13.5354 11.7683 13.3477 11.8223L10.8945 12.4277L15.459 15.9697C15.5585 16.0297 15.6446 16.1097 15.7109 16.2051C15.7773 16.3005 15.8232 16.4092 15.8447 16.5234C15.8662 16.6376 15.863 16.7552 15.8359 16.8682C15.8088 16.9811 15.7584 17.0877 15.6875 17.1797C15.6165 17.2718 15.5263 17.3483 15.4238 17.4033C15.3215 17.4582 15.2086 17.4907 15.0928 17.499C14.9769 17.5073 14.8601 17.491 14.751 17.4512C14.6417 17.4113 14.5414 17.3487 14.458 17.2676L9.86035 13.7148V16.4092C9.86035 16.628 9.77386 16.8384 9.61914 16.9932C9.46443 17.1479 9.25395 17.2344 9.03516 17.2344C8.81656 17.2343 8.60678 17.1477 8.45215 16.9932C8.29743 16.8384 8.21094 16.628 8.21094 16.4092L8.23242 12.0312C8.23562 11.8782 8.28 11.7284 8.36133 11.5986C8.44268 11.4689 8.55795 11.3635 8.69434 11.2939L8.83789 11.2061L12.9629 10.2051C13.0282 10.1943 13.0949 10.1943 13.1602 10.2051ZM15.3828 1.86719C15.972 1.86728 16.4492 2.34534 16.4492 2.93457V4.04492C16.4492 4.63415 15.972 5.11221 15.3828 5.1123H9.12402C8.53474 5.1123 8.05664 4.63421 8.05664 4.04492V2.93457C8.05664 2.34528 8.53474 1.86719 9.12402 1.86719H15.3828Z" fill="white"/>
</svg>
