<svg width="18" height="18" viewBox="0 0 18 18" fill="none" xmlns="http://www.w3.org/2000/svg">
<path d="M6.2094 17.0625C5.58424 17.0566 4.98417 16.8158 4.52841 16.3878C4.07266 15.9598 3.79457 15.3761 3.7494 14.7525L3.2019 6.92252C3.19698 6.84865 3.20665 6.77454 3.23037 6.70441C3.25409 6.63428 3.29139 6.56951 3.34014 6.51379C3.38889 6.45808 3.44814 6.41251 3.5145 6.37969C3.58086 6.34687 3.65303 6.32745 3.7269 6.32252C3.80077 6.3176 3.87489 6.32727 3.94502 6.35099C4.01515 6.37471 4.07992 6.41201 4.13563 6.46076C4.19135 6.50951 4.23692 6.56876 4.26973 6.63512C4.30255 6.70148 4.32198 6.77365 4.3269 6.84752L4.8594 14.6775C4.88599 15.0223 5.04248 15.3442 5.29725 15.5781C5.55202 15.812 5.88607 15.9404 6.2319 15.9375L11.8944 15.87C12.2385 15.8666 12.5682 15.732 12.8163 15.4936C13.0645 15.2553 13.2122 14.9312 13.2294 14.5875L13.6719 6.84752C13.6834 6.69832 13.7524 6.55942 13.8644 6.46009C13.9763 6.36076 14.1224 6.30875 14.2719 6.31502C14.4198 6.32468 14.558 6.39233 14.6563 6.50329C14.7546 6.61424 14.8051 6.75951 14.7969 6.90752L14.3544 14.655C14.3167 15.2814 14.0439 15.8704 13.5906 16.3043C13.1372 16.7381 12.5368 16.9848 11.9094 16.995L6.2469 17.0625H6.2094ZM11.2344 9.63752C11.2325 9.48894 11.1726 9.34699 11.0675 9.24192C10.9624 9.13685 10.8205 9.07696 10.6719 9.07502H7.3269C7.17772 9.07502 7.03464 9.13429 6.92916 9.23977C6.82367 9.34526 6.7644 9.48834 6.7644 9.63752C6.7644 9.78671 6.82367 9.92978 6.92916 10.0353C7.03464 10.1408 7.17772 10.2 7.3269 10.2H10.6719C10.747 10.202 10.8218 10.189 10.8918 10.1616C10.9618 10.1342 11.0256 10.0931 11.0794 10.0407C11.1332 9.98823 11.176 9.92555 11.2052 9.8563C11.2344 9.78706 11.2494 9.71267 11.2494 9.63752H11.2344ZM10.6494 12.4125C10.6494 12.2633 10.5901 12.1203 10.4847 12.0148C10.3792 11.9093 10.2361 11.85 10.0869 11.85H7.9119C7.76272 11.85 7.61964 11.9093 7.51416 12.0148C7.40867 12.1203 7.3494 12.2633 7.3494 12.4125C7.3494 12.5617 7.40867 12.7048 7.51416 12.8103C7.61964 12.9158 7.76272 12.975 7.9119 12.975H10.0869C10.2355 12.9731 10.3774 12.9132 10.4825 12.8081C10.5876 12.7031 10.6475 12.5611 10.6494 12.4125V12.4125ZM15.7494 4.89002C15.7312 5.02387 15.6647 5.14646 15.5625 5.23483C15.4604 5.32319 15.3295 5.37126 15.1944 5.37002H15.1119C11.0634 4.81364 6.95788 4.81364 2.9094 5.37002C2.83498 5.38288 2.75875 5.38081 2.68513 5.36395C2.61152 5.3471 2.54199 5.31577 2.48058 5.27181C2.41917 5.22785 2.36711 5.17212 2.32743 5.10787C2.28774 5.04361 2.26122 4.97211 2.2494 4.89752C2.2256 4.75034 2.26121 4.59972 2.3484 4.47878C2.4356 4.35783 2.56724 4.27645 2.7144 4.25252C2.8119 4.25252 3.8469 4.07252 5.4744 3.94502L5.7444 2.53502C5.83009 2.08492 6.07038 1.67891 6.42372 1.3872C6.77705 1.09549 7.22121 0.936433 7.6794 0.937522H10.3269C10.7885 0.935321 11.2362 1.09571 11.5914 1.39056C11.9466 1.6854 12.1866 2.09589 12.2694 2.55002L12.5244 3.94502C13.4169 4.02002 14.3319 4.11002 15.2694 4.25252C15.3429 4.26264 15.4136 4.28719 15.4776 4.32476C15.5415 4.36232 15.5974 4.41217 15.642 4.47142C15.6866 4.53067 15.7191 4.59815 15.7375 4.67C15.7559 4.74184 15.76 4.81661 15.7494 4.89002V4.89002ZM8.6694 3.81752H11.3544L11.1594 2.75252C11.1243 2.55917 11.0225 2.38425 10.8718 2.25818C10.7211 2.13211 10.5309 2.06287 10.3344 2.06252H7.6869C7.49056 2.06224 7.30021 2.13014 7.14837 2.25462C6.99654 2.3791 6.89263 2.55244 6.8544 2.74502L6.6519 3.81752H8.6694Z" fill="#EEF6FF"/>
</svg>
