<svg width="24" height="24" viewBox="0 0 24 24" fill="none" xmlns="http://www.w3.org/2000/svg">
<path opacity="0.3" d="M11.2698 3.9701C11.4784 4.48888 11.8378 4.93317 12.3016 5.24555C12.7653 5.55792 13.3121 5.72401 13.8713 5.72235H17.0963C18.1046 5.73171 19.0922 6.00953 19.9576 6.52722C20.8229 7.04491 21.5347 7.78379 22.0198 8.66784C21.9269 7.16766 21.2661 5.75917 20.1718 4.72878C19.0775 3.69839 17.6318 3.12344 16.1288 3.12085H10.9258L11.2698 3.9701Z" fill="white"/>
<path d="M17.074 5.66826H13.849C13.291 5.67069 12.7453 5.50477 12.2831 5.19216C11.8209 4.87955 11.4637 4.4348 11.2583 3.91601L10.925 3.01301C10.7175 2.49476 10.3602 2.05017 9.89869 1.73611C9.43718 1.42206 8.89248 1.25281 8.33425 1.25001H6.18426C5.53679 1.2486 4.8954 1.3749 4.29681 1.6217C3.69823 1.8685 3.1542 2.23093 2.69587 2.68826C2.23754 3.14559 1.87392 3.68883 1.62581 4.28688C1.37771 4.88493 1.25001 5.52604 1.25001 6.17351V17.074C1.24859 17.8198 1.39444 18.5585 1.67918 19.2478C1.96393 19.9371 2.38196 20.5633 2.90931 21.0907C3.43666 21.618 4.06294 22.0361 4.75222 22.3208C5.4415 22.6056 6.18022 22.7514 6.926 22.75H17.074C17.8198 22.7514 18.5585 22.6056 19.2478 22.3208C19.9371 22.0361 20.5633 21.618 21.0907 21.0907C21.618 20.5633 22.0361 19.9371 22.3208 19.2478C22.6056 18.5585 22.7514 17.8198 22.75 17.074V11.3443C22.75 10.5989 22.6032 9.86079 22.3179 9.17214C22.0327 8.4835 21.6146 7.85778 21.0875 7.33072C20.5605 6.80365 19.9347 6.38556 19.2461 6.10032C18.5575 5.81507 17.8194 5.66826 17.074 5.66826ZM8.259 14.4402C8.10312 14.4399 7.95095 14.3926 7.82244 14.3043C7.69392 14.2161 7.59505 14.0911 7.53875 13.9457L6.6895 11.7205C6.61908 11.5308 6.62577 11.321 6.70816 11.1361C6.79055 10.9512 6.94207 10.806 7.13025 10.7315C7.2241 10.6952 7.32421 10.6778 7.42481 10.6803C7.52541 10.6828 7.62452 10.7052 7.71644 10.7461C7.80836 10.7871 7.89127 10.8458 7.9604 10.919C8.02953 10.9921 8.08352 11.0782 8.11925 11.1723L8.3665 11.8065C8.35718 11.764 8.35718 11.72 8.3665 11.6775C8.61963 11.2079 8.96345 10.7932 9.37803 10.4574C9.79262 10.1217 10.2697 9.87159 10.7817 9.7216C11.2937 9.57161 11.8303 9.52473 12.3605 9.58368C12.8907 9.64262 13.404 9.80623 13.8705 10.065C13.9677 10.1074 14.055 10.1696 14.1268 10.2476C14.1986 10.3256 14.2534 10.4177 14.2877 10.518C14.3219 10.6184 14.3349 10.7248 14.3258 10.8304C14.3166 10.936 14.2856 11.0386 14.2346 11.1316C14.1836 11.2246 14.1138 11.3059 14.0296 11.3704C13.9455 11.4349 13.8488 11.4812 13.7458 11.5062C13.6427 11.5313 13.5356 11.5346 13.4312 11.516C13.3268 11.4973 13.2275 11.4572 13.1395 11.398C12.8483 11.238 12.5282 11.1376 12.1979 11.1025C11.8675 11.0675 11.5335 11.0985 11.2153 11.1938C10.6393 11.3937 10.1547 11.7944 9.85 12.3225L10.3875 12.129C10.5799 12.062 10.7911 12.0742 10.9746 12.1629C11.158 12.2516 11.2987 12.4096 11.3657 12.602C11.4327 12.7944 11.4206 13.0056 11.3319 13.1891C11.2431 13.3725 11.0852 13.5132 10.8928 13.5802L8.54925 14.3972C8.45719 14.4341 8.35778 14.4488 8.259 14.4402V14.4402ZM16.5042 17.8157C16.4258 17.8269 16.3462 17.8269 16.2677 17.8157C16.1176 17.8213 15.9692 17.7824 15.8411 17.704C15.713 17.6256 15.6109 17.5112 15.5475 17.375L15.3862 16.8912C15.0326 17.5147 14.5199 18.0333 13.9005 18.394C13.2811 18.7547 12.577 18.9446 11.8602 18.9445C11.179 18.9464 10.5088 18.7724 9.9145 18.4392C9.81731 18.3969 9.73002 18.3347 9.65819 18.2567C9.58636 18.1787 9.53157 18.0866 9.49732 17.9862C9.46307 17.8859 9.4501 17.7795 9.45924 17.6738C9.46838 17.5682 9.49944 17.4656 9.55042 17.3727C9.60141 17.2797 9.6712 17.1983 9.75536 17.1338C9.83952 17.0693 9.9362 17.0231 10.0392 16.998C10.1423 16.973 10.2494 16.9696 10.3538 16.9883C10.4581 17.0069 10.5575 17.0471 10.6455 17.1062C11.2192 17.4151 11.8898 17.4913 12.5182 17.3192C13.1466 17.1471 13.6847 16.7398 14.021 16.1817L13.548 16.3645C13.455 16.4026 13.3553 16.4217 13.2547 16.4206C13.1542 16.4195 13.0549 16.3983 12.9627 16.3582C12.8706 16.3182 12.7873 16.26 12.718 16.1872C12.6486 16.1144 12.5946 16.0285 12.559 15.9345C12.488 15.7461 12.4931 15.5374 12.5734 15.3528C12.6537 15.1681 12.8028 15.022 12.989 14.9455L15.225 14.0102C15.3204 13.9706 15.4227 13.9502 15.526 13.9502C15.6293 13.9502 15.7316 13.9706 15.827 14.0102C15.9208 14.0541 16.0045 14.1168 16.073 14.1945C16.1414 14.2722 16.1931 14.3632 16.2247 14.4617L16.9987 16.8267C17.0323 16.9241 17.0461 17.0272 17.0393 17.1299C17.0326 17.2327 17.0053 17.333 16.9593 17.4251C16.9132 17.5172 16.8493 17.5992 16.7711 17.6663C16.693 17.7334 16.6023 17.7842 16.5042 17.8157Z" fill="white"/>
</svg>
