<svg width="14" height="14" viewBox="0 0 14 14" fill="none" xmlns="http://www.w3.org/2000/svg">
<g clip-path="url(#clip0_2783_18331)">
<path opacity="0.1" d="M13.2228 9.32803V4.66543C13.2167 3.64251 12.806 2.66356 12.0805 1.9424C11.355 1.22123 10.3737 0.816457 9.35072 0.816475H4.65349C4.14112 0.813412 3.63324 0.912071 3.15927 1.10673C2.68531 1.3014 2.2547 1.58819 1.89239 1.9505C1.53009 2.31281 1.24329 2.74342 1.04863 3.21738C0.853965 3.69134 0.755306 4.19923 0.75837 4.7116V9.3742C0.764866 10.1191 0.986083 10.8463 1.39549 11.4686C1.8049 12.0909 2.38513 12.5819 3.06659 12.8827C3.17623 12.9289 3.28587 12.975 3.39551 13.0096H3.4359L3.77637 13.102H3.8283C3.93217 13.102 4.04181 13.1366 4.15145 13.1539H4.2207C4.34188 13.1539 4.46883 13.1539 4.59578 13.1539H4.68234H9.37957C9.50652 13.1539 9.63924 13.1539 9.7662 13.1539H9.8643C9.9632 13.1442 10.0615 13.1287 10.1586 13.1077H10.2105L10.551 13.0154C10.6779 12.975 10.8049 12.9231 10.9261 12.8712L11.2896 12.7096C11.5903 12.5336 11.8676 12.3203 12.1148 12.0748C12.4712 11.7124 12.7525 11.2833 12.9427 10.8119C13.1328 10.3405 13.228 9.83627 13.2228 9.32803Z" fill="black"/>
<path d="M13.3 9.36791V4.65458C13.2939 3.62052 12.8788 2.63092 12.1454 1.90191C11.412 1.1729 10.4199 0.763723 9.38585 0.763742H4.63752C4.11958 0.760645 3.60617 0.860377 3.12705 1.05716C2.64793 1.25394 2.21263 1.54386 1.84638 1.9101C1.48013 2.27635 1.19022 2.71165 0.993437 3.19077C0.796656 3.66989 0.696924 4.1833 0.700021 4.70124V9.41457C0.706588 10.1676 0.930212 10.9027 1.34408 11.5317C1.75794 12.1608 2.34448 12.6571 3.03335 12.9612C3.14419 13.0079 3.25502 13.0546 3.36585 13.0896H3.40669L3.75085 13.1829H3.80335C3.90835 13.1829 4.01919 13.2179 4.13002 13.2354H4.20002C4.32252 13.2354 4.45085 13.2354 4.57919 13.2354H4.66669H9.41502C9.54335 13.2354 9.67752 13.2354 9.80585 13.2354H9.90502C10.005 13.2256 10.1043 13.21 10.2025 13.1887H10.255L10.5992 13.0954C10.7275 13.0546 10.8559 13.0021 10.9784 12.9496L11.3459 12.7862C11.6498 12.6083 11.9301 12.3927 12.18 12.1446C12.5403 11.7783 12.8247 11.3444 13.0169 10.8679C13.2091 10.3914 13.3053 9.88168 13.3 9.36791ZM4.57919 12.4362C4.43023 12.4355 4.28171 12.4198 4.13585 12.3896C4.06288 12.3822 3.99067 12.3685 3.92002 12.3487L3.78585 12.2846C4.08235 11.6871 4.53978 11.1843 5.10662 10.8328C5.67347 10.4813 6.3272 10.2951 6.99419 10.2951C7.66117 10.2951 8.31491 10.4813 8.88175 10.8328C9.4486 11.1843 9.90603 11.6871 10.2025 12.2846L10.0742 12.3254L9.92835 12.3546C9.75581 12.3919 9.57989 12.4114 9.40335 12.4129L4.66669 12.4421L4.57919 12.4362ZM10.9959 11.9462C10.6348 11.192 10.0677 10.5552 9.36014 10.1094C8.65257 9.66371 7.83336 9.42718 6.9971 9.42718C6.16084 9.42718 5.34164 9.66371 4.63407 10.1094C3.92651 10.5552 3.35944 11.192 2.99835 11.9462C2.57263 11.6742 2.22159 11.3002 1.9771 10.8581C1.73261 10.4159 1.60242 9.91977 1.59835 9.41457L1.57502 4.70124C1.57346 3.89667 1.89038 3.12419 2.45656 2.55255C3.02274 1.9809 3.79214 1.65657 4.59669 1.65041H9.34502C10.1476 1.65192 10.9171 1.97021 11.4862 2.53605C12.0553 3.1019 12.378 3.86955 12.3842 4.67208V9.38541C12.3875 9.78468 12.3113 10.1806 12.1601 10.5502C12.0088 10.9197 11.7856 11.2555 11.5034 11.5379C11.3507 11.6933 11.1804 11.8304 10.9959 11.9462ZM7.00002 3.62791C6.49584 3.62791 6.00299 3.77741 5.58378 4.05752C5.16457 4.33763 4.83784 4.73575 4.6449 5.20155C4.45196 5.66735 4.40148 6.1799 4.49984 6.67439C4.5982 7.16888 4.84098 7.6231 5.19749 7.97961C5.554 8.33612 6.00821 8.5789 6.5027 8.67726C6.99719 8.77562 7.50975 8.72514 7.97555 8.5322C8.44134 8.33926 8.83947 8.01252 9.11958 7.59332C9.39968 7.17411 9.54919 6.68125 9.54919 6.17707C9.54919 5.50099 9.28062 4.8526 8.80255 4.37454C8.32449 3.89648 7.6761 3.62791 7.00002 3.62791ZM7.00002 7.85124C6.6689 7.85124 6.34522 7.75305 6.0699 7.56909C5.79459 7.38513 5.58001 7.12366 5.45329 6.81775C5.32658 6.51184 5.29343 6.17522 5.35802 5.85046C5.42262 5.5257 5.58207 5.2274 5.81621 4.99326C6.05034 4.75912 6.34865 4.59968 6.67341 4.53508C6.99816 4.47048 7.33478 4.50363 7.6407 4.63035C7.94661 4.75706 8.20808 4.97164 8.39204 5.24696C8.576 5.52227 8.67419 5.84596 8.67419 6.17707C8.67265 6.62062 8.49577 7.04556 8.18214 7.35919C7.8685 7.67283 7.44356 7.8497 7.00002 7.85124Z" fill="black"/>
</g>
<defs>
<clipPath id="clip0_2783_18331">
<rect width="14" height="14" fill="white"/>
</clipPath>
</defs>
</svg>
