<svg width="26" height="26" viewBox="0 0 26 26" fill="none" xmlns="http://www.w3.org/2000/svg">
<path d="M12.8738 24.9536C14.2075 24.9536 15.2886 23.8725 15.2886 22.5388C15.2886 21.2052 14.2075 20.124 12.8738 20.124C11.5401 20.124 10.459 21.2052 10.459 22.5388C10.459 23.8725 11.5401 24.9536 12.8738 24.9536Z" fill="#EEF6FF"/>
<path opacity="0.3" d="M12.8969 13.7C14.1452 13.7 15.3796 13.9642 16.5189 14.4744C16.6737 14.5492 16.8112 14.6558 16.9213 14.7878C17.0314 14.9199 17.1119 15.0742 17.1576 15.24C17.2033 15.4056 17.2127 15.579 17.1859 15.7488C17.1592 15.9185 17.0968 16.0808 17.0023 16.2244L15.9516 17.8308C15.0392 17.2251 13.9686 16.9012 12.8734 16.9011C11.7781 16.9011 10.7068 17.2249 9.79433 17.8308L8.74355 16.2244C8.65068 16.0778 8.59019 15.9129 8.56679 15.741C8.54339 15.5689 8.55739 15.3935 8.60781 15.2273C8.65821 15.0613 8.74386 14.908 8.85879 14.7781C8.97382 14.6481 9.11609 14.5446 9.2748 14.4744C10.4141 13.9641 11.6485 13.7 12.8969 13.7ZM12.8725 7.22925C15.4022 7.22925 17.8921 7.85966 20.1166 9.06421C20.2647 9.1447 20.3947 9.25581 20.4975 9.3894C20.6001 9.52296 20.6735 9.67687 20.7133 9.84058C20.753 10.0041 20.7588 10.174 20.7289 10.3396C20.6989 10.5055 20.6341 10.664 20.5395 10.8035L19.4652 12.4333C17.5041 11.1552 15.2133 10.4744 12.8725 10.4744C10.5316 10.4744 8.2408 11.1553 6.27968 12.4333L5.20547 10.8035C5.11085 10.664 5.04697 10.5055 5.01699 10.3396C4.98711 10.174 4.99194 10.0041 5.03164 9.84058C5.07142 9.67691 5.14481 9.52293 5.24746 9.3894C5.35022 9.25581 5.48024 9.1447 5.62832 9.06421C7.85284 7.85962 10.3427 7.22927 12.8725 7.22925ZM12.8715 0.80542C16.6455 0.80542 20.3542 1.79143 23.6293 3.66675C23.7766 3.74629 23.9064 3.8559 24.0092 3.98804C24.1119 4.12007 24.186 4.27213 24.227 4.43433C24.2678 4.5967 24.2745 4.76631 24.2465 4.9314C24.2185 5.09627 24.1568 5.25361 24.0648 5.39331L22.9896 7.04761C19.9829 5.07754 16.4661 4.02808 12.8715 4.02808C9.27685 4.02814 5.75999 5.07749 2.75332 7.04761L1.6791 5.39331C1.58713 5.25359 1.52543 5.09632 1.49746 4.9314C1.46947 4.76631 1.47611 4.5967 1.51699 4.43433C1.55789 4.27216 1.63206 4.12005 1.73476 3.98804C1.83755 3.85598 1.96642 3.74626 2.11367 3.66675C5.38875 1.79131 9.09744 0.805475 12.8715 0.80542Z" fill="#EEF6FF"/>
</svg>
