<svg width="18" height="18" viewBox="0 0 18 18" fill="none" xmlns="http://www.w3.org/2000/svg">
<path d="M3.06677 17.9746H2.99177C2.57497 17.965 2.1646 17.8698 1.78614 17.6949C1.40768 17.52 1.06922 17.2691 0.791769 16.958C0.270598 16.3503 0.00179777 15.5661 0.0405394 14.7665C0.079281 13.9669 0.422625 13.2124 1.0001 12.658L4.8751 8.79129C5.08391 8.58651 5.24286 8.33647 5.33967 8.06049C5.43648 7.78451 5.46856 7.48997 5.43344 7.19962C5.304 6.29798 5.37215 5.37898 5.63316 4.5063C5.89417 3.63361 6.3418 2.82811 6.94504 2.1456C7.54828 1.4631 8.29269 0.919911 9.12671 0.553678C9.96072 0.187445 10.8644 0.00692431 11.7751 0.024624C12.073 0.030116 12.3626 0.123217 12.6079 0.292306C12.8532 0.461395 13.0433 0.698984 13.1544 0.975417C13.2655 1.25185 13.2927 1.55489 13.2327 1.8467C13.1726 2.13851 13.028 2.40618 12.8168 2.61629L10.4251 5.00796C10.3247 5.1051 10.2566 5.23067 10.2297 5.36774C10.2029 5.50482 10.2188 5.64682 10.2751 5.77462C10.6776 6.62739 11.364 7.31376 12.2168 7.71629C12.3435 7.77077 12.4838 7.7856 12.6192 7.75883C12.7545 7.73205 12.8786 7.66493 12.9751 7.56629L15.3751 5.16629C15.5856 4.95785 15.8526 4.81563 16.143 4.75719C16.4334 4.69875 16.7346 4.72665 17.0094 4.83744C17.2841 4.94823 17.5204 5.13706 17.6891 5.38061C17.8577 5.62417 17.9514 5.91179 17.9584 6.20796C17.9761 7.11867 17.7956 8.02234 17.4294 8.85635C17.0631 9.69037 16.52 10.4348 15.8375 11.038C15.155 11.6413 14.3494 12.0889 13.4768 12.3499C12.6041 12.6109 11.6851 12.6791 10.7834 12.5496C10.4925 12.5162 10.1977 12.5499 9.92179 12.6481C9.64588 12.7463 9.39614 12.9065 9.19177 13.1163L5.2251 17.0746C4.94251 17.3596 4.60631 17.5859 4.23588 17.7403C3.86545 17.8948 3.46811 17.9744 3.06677 17.9746ZM11.6501 1.30796C10.9253 1.29975 10.2074 1.44922 9.54617 1.746C8.8849 2.04279 8.29607 2.47979 7.82046 3.02674C7.34485 3.57369 6.99384 4.21751 6.79175 4.91358C6.58967 5.60966 6.54133 6.34135 6.6501 7.05796C6.71168 7.54043 6.66099 8.0306 6.50198 8.49026C6.34298 8.94992 6.07996 9.36665 5.73344 9.70796L1.88344 13.5413C1.53725 13.8732 1.32874 14.3233 1.2994 14.802C1.27006 15.2807 1.42205 15.7529 1.7251 16.1246C1.88763 16.308 2.0862 16.4559 2.30844 16.5592C2.53067 16.6624 2.7718 16.7187 3.01677 16.7246C3.26208 16.7289 3.50575 16.6839 3.73334 16.5923C3.96094 16.5007 4.16784 16.3643 4.34177 16.1913L8.30844 12.233C8.64744 11.8832 9.06389 11.618 9.5242 11.4588C9.98451 11.2996 10.4758 11.2508 10.9584 11.3163C11.6821 11.4264 12.4211 11.3762 13.1233 11.1694C13.8255 10.9625 14.4737 10.604 15.0221 10.1192C15.5705 9.63434 16.0058 9.035 16.2972 8.36349C16.5886 7.69198 16.729 6.96468 16.7084 6.23296C16.7085 6.18052 16.6925 6.12932 16.6628 6.08615C16.633 6.04298 16.5908 6.0099 16.5418 5.99129C16.4943 5.97045 16.4416 5.96486 16.3908 5.97531C16.34 5.98577 16.2938 6.01173 16.2584 6.04962L13.8584 8.44962C13.5787 8.7339 13.2176 8.92428 12.825 8.99444C12.4324 9.0646 12.0276 9.01109 11.6668 8.84129C10.5746 8.3148 9.69326 7.43347 9.16677 6.34129C8.99629 5.97915 8.94241 5.57303 9.01256 5.17897C9.08272 4.78491 9.27345 4.42234 9.55844 4.14129L11.9501 1.74962C11.9891 1.71501 12.0158 1.66871 12.0263 1.61765C12.0369 1.56659 12.0306 1.51349 12.0084 1.46629C11.9889 1.41791 11.9556 1.37633 11.9126 1.34671C11.8696 1.31708 11.8189 1.30071 11.7668 1.29962L11.6501 1.30796ZM3.6251 15.508L8.2251 10.908C8.37284 10.753 8.45526 10.5471 8.45526 10.333C8.45526 10.1188 8.37284 9.91294 8.2251 9.75796C8.07055 9.61264 7.8664 9.53174 7.65427 9.53174C7.44213 9.53174 7.23798 9.61264 7.08344 9.75796L2.4751 14.3663C2.32979 14.5208 2.24889 14.725 2.24889 14.9371C2.24889 15.1493 2.32979 15.3534 2.4751 15.508C2.63008 15.6557 2.83598 15.7381 3.0501 15.7381C3.26422 15.7381 3.47012 15.6557 3.6251 15.508Z" fill="#F5F5F5"/>
</svg>
